<?xml version="1.0" standalone="no"?>
<!DOCTYPE svg PUBLIC "-//W3C//DTD SVG 20010904//EN"
 "http://www.w3.org/TR/2001/REC-SVG-20010904/DTD/svg10.dtd">
<svg version="1.0" xmlns="http://www.w3.org/2000/svg"
 width="300.000000pt" height="300.000000pt" viewBox="0 0 300.000000 300.000000"
 preserveAspectRatio="xMidYMid meet">
<metadata>
Created by potrace 1.10, written by Peter Selinger 2001-2011
</metadata>
<g transform="translate(0.000000,300.000000) scale(0.100000,-0.100000)"
fill="#ffffff" stroke="none">
<path d="M1527 2936 c-21 -8 -41 -17 -44 -20 -9 -9 -3 -7 42 9 63 23 249 17
213 -7 -8 -5 -2 -6 17 -2 21 4 26 3 16 -4 -10 -7 -1 -14 33 -27 26 -10 58 -31
72 -48 14 -16 28 -27 31 -23 11 10 -79 88 -126 109 -59 27 -199 34 -254 13z
m283 -36 c8 -5 11 -10 5 -10 -5 0 -17 5 -25 10 -8 5 -10 10 -5 10 6 0 17 -5
25 -10z"/>
<path d="M1535 2909 c-33 -5 -78 -14 -100 -20 -22 -5 -69 -14 -105 -19 -61 -9
-189 -53 -200 -70 -3 -4 -18 -14 -35 -23 -16 -9 -66 -50 -109 -92 -44 -41 -83
-75 -88 -75 -4 0 -8 -7 -8 -15 0 -8 -4 -15 -8 -15 -5 0 -17 -7 -28 -15 -18
-14 -17 -14 9 -5 45 16 44 13 -8 -36 -28 -25 -39 -38 -25 -30 13 9 33 16 43
16 9 0 20 8 24 18 3 9 15 27 26 39 18 20 18 23 4 29 -9 3 -14 10 -11 15 3 5 9
7 14 4 4 -3 11 3 14 12 6 15 9 15 16 3 7 -11 13 -8 32 15 13 17 35 43 50 60
24 26 29 28 39 15 9 -13 10 -12 5 3 -4 12 1 20 17 26 13 5 29 16 36 25 15 18
36 22 25 4 -4 -7 -3 -8 4 -4 7 4 12 14 12 22 0 8 7 15 15 15 48 4 60 1 57 -10
-1 -7 2 -10 8 -6 6 3 8 11 5 16 -4 5 5 9 19 9 13 0 33 3 43 6 15 5 15 4 3 -5
-9 -7 -10 -11 -3 -11 6 0 15 5 18 10 11 17 -25 23 -72 13 -32 -8 -42 -8 -34 0
6 6 44 11 84 12 39 0 75 4 78 9 4 5 26 10 49 12 23 2 50 9 58 16 13 11 15 10
10 -2 -4 -11 0 -16 13 -16 12 0 15 4 8 12 -7 8 7 13 51 18 70 8 129 -1 137
-20 3 -8 9 -11 15 -8 5 3 18 -2 28 -11 11 -10 26 -15 34 -12 9 4 20 -1 25 -11
6 -9 11 -13 11 -8 0 5 11 -1 25 -14 25 -24 33 -50 15 -50 -5 0 -10 5 -10 11 0
6 -7 17 -15 25 -8 9 -15 12 -15 8 0 -5 -5 -3 -12 4 -20 20 -30 14 -17 -10 7
-15 -3 -9 -27 16 -22 22 -40 34 -42 27 -2 -6 8 -21 22 -32 14 -11 24 -25 20
-30 -3 -5 0 -8 7 -7 6 2 14 -3 17 -11 3 -11 -2 -12 -24 -7 -26 6 -27 5 -11 -8
22 -17 72 1 56 20 -13 16 9 30 23 16 7 -7 6 -17 -2 -32 -10 -19 -10 -22 3 -17
8 3 20 0 26 -6 9 -9 11 -8 6 4 -4 10 0 19 9 22 12 5 16 0 16 -16 0 -27 -9 -40
-35 -55 -14 -8 -16 -11 -5 -12 25 0 62 31 56 47 -8 19 11 53 29 53 8 0 15 -5
15 -11 0 -5 4 -8 9 -4 5 3 12 1 16 -5 4 -6 -8 -10 -29 -10 -20 0 -36 -5 -36
-11 0 -7 9 -9 21 -6 17 5 18 3 7 -10 -12 -14 -11 -15 9 -5 12 7 25 17 29 23 4
8 9 7 16 -2 8 -11 9 -11 5 1 -6 24 20 43 51 36 27 -5 27 -5 -3 9 -39 18 -56
19 -49 1 8 -21 -9 -26 -31 -10 -16 12 -17 14 -2 14 10 0 17 8 17 18 0 15 -2
15 -11 2 -7 -10 -12 -11 -15 -4 -3 8 -17 9 -42 3 -34 -7 -39 -5 -76 32 -37 36
-66 53 -51 29 3 -6 -1 -7 -9 -4 -9 3 -14 10 -11 14 8 13 -70 39 -132 44 -32 2
-85 0 -118 -5z m395 -129 c0 -5 -5 -10 -11 -10 -5 0 -7 5 -4 10 3 6 8 10 11
10 2 0 4 -4 4 -10z m37 4 c-3 -3 -12 -4 -19 -1 -8 3 -5 6 6 6 11 1 17 -2 13
-5z"/>
<path d="M1840 2915 c0 -2 17 -12 38 -21 20 -10 49 -29 65 -42 15 -14 27 -23
27 -19 0 12 -44 48 -82 68 -38 19 -48 22 -48 14z"/>
<path d="M1659 2873 c26 -3 31 -7 20 -14 -11 -7 -10 -9 7 -9 11 0 26 -6 34
-12 8 -7 7 -4 -3 8 -9 11 -14 24 -10 27 3 4 -14 6 -38 5 -40 -1 -41 -2 -10 -5z"/>
<path d="M764 2832 c-11 -10 -14 -10 -14 -1 0 10 -3 10 -12 1 -7 -7 -18 -12
-24 -12 -26 0 -65 -20 -59 -31 5 -7 14 -5 28 4 24 15 76 28 119 29 15 1 25 4
23 9 -3 4 4 5 16 2 14 -4 17 -8 9 -13 -7 -4 -9 -13 -6 -19 9 -15 32 6 33 31 2
16 -5 19 -49 17 -28 -2 -56 -9 -64 -17z"/>
<path d="M1650 2825 c-11 -13 -10 -14 4 -9 9 3 16 10 16 15 0 13 -6 11 -20 -6z"/>
<path d="M1385 2790 c-3 -5 -1 -10 4 -10 6 0 11 5 11 10 0 6 -2 10 -4 10 -3 0
-8 -4 -11 -10z"/>
<path d="M610 2770 c-11 -11 -25 -18 -29 -15 -5 2 -15 -3 -22 -12 -12 -14 -12
-16 1 -8 8 5 23 10 33 10 10 1 22 6 25 12 4 5 14 12 22 15 10 3 11 6 2 12 -6
3 -21 -3 -32 -14z"/>
<path d="M830 2770 c-8 -5 -18 -6 -24 -3 -5 3 -6 2 -3 -4 8 -13 -42 -66 -57
-60 -7 3 -13 -1 -13 -9 0 -10 10 -8 38 8 21 12 36 25 33 30 -3 5 0 8 8 6 7 -2
14 1 15 6 1 5 7 12 14 17 8 4 11 10 8 13 -2 3 -11 1 -19 -4z"/>
<path d="M2106 2748 c3 -5 10 -6 15 -3 13 9 11 12 -6 12 -8 0 -12 -4 -9 -9z"/>
<path d="M2068 2743 c7 -3 16 -2 19 1 4 3 -2 6 -13 5 -11 0 -14 -3 -6 -6z"/>
<path d="M2033 2715 c-12 -9 -28 -14 -34 -13 -7 2 -15 -6 -17 -17 -2 -11 -9
-26 -15 -33 -9 -11 -13 -11 -24 4 -7 10 -16 15 -19 11 -4 -3 2 -14 11 -24 17
-16 19 -16 45 15 14 18 34 32 44 32 9 0 14 5 11 10 -3 6 1 10 9 10 9 0 16 5
16 10 0 13 -2 13 -27 -5z"/>
<path d="M2085 2720 c-3 -6 -1 -10 6 -10 26 0 87 -34 83 -45 -3 -7 6 -15 20
-19 14 -3 26 -11 26 -17 0 -6 -4 -8 -9 -4 -5 3 -23 7 -39 9 -27 3 -31 0 -37
-30 -4 -25 -10 -32 -22 -27 -12 5 -12 2 3 -15 22 -26 25 -27 17 -5 -4 11 -3
14 5 9 8 -5 10 -1 5 10 -5 13 -3 15 7 9 10 -6 12 -2 7 16 -6 23 -5 23 8 5 8
-10 16 -23 18 -29 4 -12 27 0 27 14 0 5 -7 9 -15 9 -8 0 -15 5 -15 10 0 6 12
4 29 -4 21 -11 31 -12 39 -4 9 9 18 6 37 -12 33 -31 32 -13 -3 25 -15 17 -23
25 -18 18 5 -8 4 -13 -2 -13 -5 0 -17 11 -26 25 -9 14 -22 25 -28 25 -6 0 -19
7 -28 15 -25 23 -88 46 -95 35z"/>
<path d="M2222 2695 c12 -14 23 -25 25 -25 2 0 -4 11 -13 25 -9 14 -20 25 -25
25 -5 0 1 -11 13 -25z"/>
<path d="M1697 2689 c7 -7 15 -10 18 -7 3 3 -2 9 -12 12 -14 6 -15 5 -6 -5z"/>
<path d="M2053 2686 c1 -6 -10 -11 -25 -11 -17 1 -27 -4 -25 -12 1 -6 -7 -19
-18 -27 -20 -15 -20 -15 3 -9 12 3 22 10 22 15 0 5 5 6 12 2 7 -4 8 -3 4 4 -4
7 -2 12 3 12 6 0 11 -5 11 -10 0 -6 15 -4 37 5 20 8 38 13 41 10 3 -3 1 -5 -5
-5 -6 0 -13 -7 -17 -15 -5 -13 -2 -14 17 -3 12 7 29 11 37 10 10 -1 11 1 2 4
-6 3 -10 9 -8 13 3 4 -17 12 -44 17 -34 7 -48 7 -47 0z"/>
<path d="M616 2675 c-11 -8 -15 -15 -9 -15 6 0 16 7 23 15 16 19 11 19 -14 0z"/>
<path d="M650 2669 c0 -5 5 -7 10 -4 6 3 10 8 10 11 0 2 -4 4 -10 4 -5 0 -10
-5 -10 -11z"/>
<path d="M1033 2653 c-3 -7 -11 -13 -19 -13 -8 0 -14 -5 -14 -10 0 -11 19 -3
54 23 17 12 17 14 1 14 -9 0 -19 -6 -22 -14z"/>
<path d="M163 2635 c0 -8 4 -12 9 -9 5 3 6 10 3 15 -9 13 -12 11 -12 -6z"/>
<path d="M1288 2623 c7 -3 16 -2 19 1 4 3 -2 6 -13 5 -11 0 -14 -3 -6 -6z"/>
<path d="M2055 2620 c-3 -5 -2 -10 4 -10 5 0 13 5 16 10 3 6 2 10 -4 10 -5 0
-13 -4 -16 -10z"/>
<path d="M1925 2600 c-3 -6 1 -7 9 -4 18 7 21 14 7 14 -6 0 -13 -4 -16 -10z"/>
<path d="M1217 2589 c7 -7 15 -10 18 -7 3 3 -2 9 -12 12 -14 6 -15 5 -6 -5z"/>
<path d="M1255 2590 c-3 -5 -1 -10 4 -10 6 0 11 5 11 10 0 6 -2 10 -4 10 -3 0
-8 -4 -11 -10z"/>
<path d="M950 2575 c-15 -19 3 -27 25 -11 16 11 16 14 2 19 -8 3 -21 0 -27 -8z"/>
<path d="M1475 2583 c11 -3 24 -10 28 -17 6 -7 7 -6 4 4 -2 8 -14 16 -28 17
-19 1 -20 1 -4 -4z"/>
<path d="M2034 2580 c-23 -9 -42 -30 -27 -30 4 0 19 9 33 20 27 21 26 23 -6
10z"/>
<path d="M2216 2574 c-8 -21 -4 -25 14 -14 11 7 12 12 4 20 -8 8 -13 7 -18 -6z"/>
<path d="M2255 2571 c-3 -12 -10 -21 -14 -21 -5 0 -6 -11 -3 -25 6 -31 32 -33
31 -2 0 21 -1 21 -9 2 -7 -16 -9 -17 -9 -3 -1 9 2 24 6 33 5 14 13 9 48 -29
24 -25 50 -62 60 -82 21 -45 25 -95 8 -101 -7 -3 -13 0 -13 7 0 6 5 8 10 5 11
-7 2 46 -9 55 -4 3 -12 18 -19 34 -11 24 -15 27 -23 15 -6 -10 -9 -11 -9 -1 0
8 -5 10 -12 6 -9 -6 -9 -3 0 9 8 9 10 21 6 28 -10 17 -32 -28 -26 -57 2 -13 8
-22 12 -19 4 2 5 -8 3 -23 -4 -25 -3 -26 10 -9 11 14 16 15 20 5 3 -7 6 -3 6
10 1 13 -3 20 -9 17 -5 -3 -10 -1 -10 4 0 19 22 12 27 -9 3 -11 10 -20 15 -20
5 0 8 -15 6 -32 -3 -29 0 -33 20 -31 18 2 22 -2 22 -23 0 -14 4 -23 9 -20 20
13 -31 179 -65 214 -7 7 -19 21 -26 30 -7 9 -23 25 -35 35 -21 18 -21 18 -28
-2z"/>
<path d="M921 2523 c-10 -26 -10 -27 4 -9 8 11 15 23 15 28 0 15 -7 8 -19 -19z"/>
<path d="M1950 2540 c-12 -7 -10 -9 7 -7 12 0 19 5 17 9 -6 10 -6 10 -24 -2z"/>
<path d="M2053 2543 c9 -2 15 -9 12 -14 -9 -14 11 -11 23 4 8 9 3 12 -21 13
-18 1 -24 -1 -14 -3z"/>
<path d="M2022 2524 c3 -17 21 -21 26 -6 1 5 -4 12 -13 16 -11 4 -15 1 -13
-10z"/>
<path d="M2450 2528 c0 -4 11 -7 25 -6 28 3 24 11 -5 13 -11 1 -20 -2 -20 -7z"/>
<path d="M2645 2531 c-2 -5 7 -8 20 -8 14 0 25 2 25 6 0 10 -39 11 -45 2z"/>
<path d="M2895 2529 c-16 -6 -13 -8 13 -8 17 -1 32 3 32 7 0 11 -20 11 -45 1z"/>
<path d="M2950 2530 c0 -5 5 -10 10 -10 6 0 10 5 10 10 0 6 -4 10 -10 10 -5 0
-10 -4 -10 -10z"/>
<path d="M1900 2515 c-14 -8 -20 -14 -14 -15 5 0 19 7 30 15 24 18 16 19 -16
0z"/>
<path d="M2518 2523 c7 -3 16 -2 19 1 4 3 -2 6 -13 5 -11 0 -14 -3 -6 -6z"/>
<path d="M798 2513 c7 -3 16 -2 19 1 4 3 -2 6 -13 5 -11 0 -14 -3 -6 -6z"/>
<path d="M2205 2510 c3 -5 8 -10 11 -10 2 0 4 5 4 10 0 6 -5 10 -11 10 -5 0
-7 -4 -4 -10z"/>
<path d="M1845 2500 c-3 -5 -1 -10 4 -10 6 0 11 5 11 10 0 6 -2 10 -4 10 -3 0
-8 -4 -11 -10z"/>
<path d="M2072 2501 c-11 -6 -10 -10 4 -15 9 -3 19 -4 22 -1 3 3 0 5 -7 5 -7
0 -9 5 -6 10 7 12 4 12 -13 1z"/>
<path d="M855 2485 c-16 -8 -26 -14 -21 -15 6 0 2 -6 -9 -13 -10 -8 -15 -19
-11 -25 4 -7 -5 -23 -21 -36 -24 -21 -25 -24 -7 -20 19 5 52 47 53 69 0 6 8
12 17 14 15 3 14 -1 -4 -24 -12 -15 -19 -32 -15 -38 3 -5 1 -7 -5 -3 -6 3 -13
-3 -17 -14 -4 -11 -10 -18 -15 -15 -5 3 -12 0 -16 -7 -4 -7 -3 -9 2 -5 5 5 14
-7 20 -25 9 -24 13 -28 14 -13 1 11 3 26 4 34 0 8 6 16 13 18 14 5 10 -52 -6
-70 -9 -11 -11 -18 -11 -34 0 -4 -7 2 -15 13 -13 16 -13 13 1 -20 8 -21 13
-45 9 -54 -3 -8 0 -19 7 -24 10 -6 10 -8 -1 -8 -11 0 -11 -3 0 -17 8 -9 10
-14 4 -11 -6 4 -10 -13 -11 -44 -1 -38 2 -48 12 -44 10 4 14 -4 14 -30 0 -24
4 -34 13 -31 12 4 13 13 3 54 -2 13 0 25 5 28 10 7 3 25 -11 25 -5 0 -10 -8
-12 -17 -3 -13 -6 -10 -9 9 -5 20 -2 26 10 23 13 -2 16 8 15 66 -1 38 2 69 5
69 4 0 7 9 7 19 0 11 -3 18 -7 15 -4 -2 -7 12 -6 31 1 24 6 35 16 35 11 0 10
4 -5 14 -18 14 -18 16 -3 43 14 23 34 95 26 92 -1 0 -15 -7 -32 -14z m-5 -213
c0 -5 -7 -17 -16 -28 -8 -10 -14 -14 -11 -9 2 6 7 18 10 28 7 17 17 23 17 9z"/>
<path d="M906 2473 c-6 -14 -5 -15 5 -6 7 7 10 15 7 18 -3 3 -9 -2 -12 -12z"/>
<path d="M951 2474 c0 -11 3 -14 6 -6 3 7 2 16 -1 19 -3 4 -6 -2 -5 -13z"/>
<path d="M1110 2475 c-7 -9 -8 -15 -2 -15 5 0 12 7 16 15 3 8 4 15 2 15 -2 0
-9 -7 -16 -15z"/>
<path d="M2036 2473 c-6 -14 -5 -15 5 -6 7 7 10 15 7 18 -3 3 -9 -2 -12 -12z"/>
<path d="M2130 2469 c-22 -18 -22 -19 -3 -10 12 6 25 16 28 21 9 15 3 12 -25
-11z"/>
<path d="M2225 2461 c0 -20 4 -27 14 -23 10 4 13 1 8 -11 -3 -9 -2 -19 2 -21
5 -3 9 -27 9 -52 1 -26 -1 -44 -5 -41 -3 4 -19 -3 -35 -14 -16 -12 -27 -23
-24 -26 3 -3 13 2 22 12 14 13 19 14 25 3 17 -27 34 11 34 78 0 54 -4 68 -20
81 -14 11 -16 17 -7 20 14 6 6 23 -11 23 -7 0 -12 -13 -12 -29z"/>
<path d="M1661 2444 c0 -11 3 -14 6 -6 3 7 2 16 -1 19 -3 4 -6 -2 -5 -13z"/>
<path d="M2070 2441 c0 -5 7 -12 16 -15 14 -5 15 -4 4 9 -14 17 -20 19 -20 6z"/>
<path d="M2170 2440 c-9 -6 -10 -10 -3 -10 6 0 15 5 18 10 8 12 4 12 -15 0z"/>
<path d="M1460 2430 c0 -5 5 -10 11 -10 5 0 7 5 4 10 -3 6 -8 10 -11 10 -2 0
-4 -4 -4 -10z"/>
<path d="M2120 2430 c-8 -5 -12 -12 -9 -15 8 -8 39 5 39 16 0 11 -11 11 -30
-1z"/>
<path d="M1995 2420 c-3 -6 1 -7 9 -4 18 7 21 14 7 14 -6 0 -13 -4 -16 -10z"/>
<path d="M880 2400 c-6 -11 -8 -20 -6 -20 3 0 10 9 16 20 6 11 8 20 6 20 -3 0
-10 -9 -16 -20z"/>
<path d="M966 2407 c3 -10 9 -15 12 -12 3 3 0 11 -7 18 -10 9 -11 8 -5 -6z"/>
<path d="M1258 2403 c7 -3 16 -2 19 1 4 3 -2 6 -13 5 -11 0 -14 -3 -6 -6z"/>
<path d="M2022 2401 c-11 -7 -11 -9 0 -14 9 -3 15 1 15 9 0 8 -1 14 -1 14 -1
0 -7 -4 -14 -9z"/>
<path d="M2053 2385 c0 -8 4 -12 9 -9 5 3 6 10 3 15 -9 13 -12 11 -12 -6z"/>
<path d="M2138 2393 c7 -3 16 -2 19 1 4 3 -2 6 -13 5 -11 0 -14 -3 -6 -6z"/>
<path d="M2166 2375 c-11 -8 -15 -15 -9 -15 6 0 16 7 23 15 16 19 11 19 -14 0z"/>
<path d="M2305 2377 c-4 -10 -5 -30 -2 -45 6 -32 -6 -58 -22 -48 -6 4 -11 2
-11 -3 0 -6 6 -11 13 -11 6 0 21 -18 31 -40 11 -23 23 -37 28 -32 5 5 2 20 -5
35 -8 15 -16 25 -18 22 -3 -2 -6 7 -7 20 -1 17 3 22 15 21 9 -2 19 -9 21 -17
3 -11 1 -11 -8 1 -10 13 -11 12 -6 -3 3 -10 6 -20 6 -23 0 -2 6 -1 13 2 17 6
15 43 -2 53 -7 5 -13 11 -12 14 0 4 -6 21 -14 39 -11 27 -15 30 -20 15z"/>
<path d="M2082 2360 c-8 -13 -8 -20 -2 -20 6 0 13 7 17 15 9 24 -1 27 -15 5z"/>
<path d="M2730 2368 c0 -5 8 -12 18 -15 9 -4 21 -11 25 -17 6 -7 7 -4 3 7 -4
12 0 17 14 17 11 0 20 -6 20 -13 0 -7 17 -21 37 -32 42 -23 103 -80 103 -97 0
-6 3 -9 6 -5 9 8 31 -15 37 -39 4 -15 5 -13 6 7 1 16 -8 34 -24 47 -14 12 -25
26 -25 32 0 5 -6 10 -13 10 -8 0 -19 11 -27 24 -7 14 -18 23 -24 22 -6 -2 -8
-1 -3 1 4 3 7 12 7 21 0 14 -2 14 -9 3 -7 -11 -10 -9 -15 7 -4 12 -19 23 -34
26 -38 8 -102 4 -102 -6z"/>
<path d="M2870 2368 c0 -5 7 -8 15 -8 8 0 15 -7 15 -15 0 -18 65 -21 76 -3 4
7 3 8 -4 4 -7 -4 -12 -2 -12 3 0 14 13 14 28 -1 9 -9 12 -8 12 5 0 13 -9 17
-36 17 -19 0 -33 -4 -30 -8 3 -5 -1 -9 -8 -9 -8 0 -12 5 -10 11 2 6 -7 11 -21
11 -14 0 -25 -3 -25 -7z"/>
<path d="M1986 2359 c3 -5 11 -9 19 -9 7 0 16 -7 19 -16 3 -8 11 -12 16 -9 16
10 -5 32 -35 37 -13 3 -22 1 -19 -3z"/>
<path d="M2703 2356 c0 -7 9 -19 19 -25 18 -11 18 -11 2 14 -19 29 -21 30 -21
11z"/>
<path d="M2190 2360 c-8 -26 -7 -41 2 -32 6 6 8 16 5 24 -3 7 -6 11 -7 8z"/>
<path d="M2235 2340 c-3 -5 -1 -10 4 -10 6 0 11 5 11 10 0 6 -2 10 -4 10 -3 0
-8 -4 -11 -10z"/>
<path d="M2600 2341 c0 -6 4 -13 10 -16 6 -3 7 1 4 9 -7 18 -14 21 -14 7z"/>
<path d="M737 2333 c-3 -2 -40 -6 -83 -8 -44 -2 -80 -5 -81 -5 -4 -2 -72 -2
-80 0 -9 2 -24 2 -148 -4 -44 -2 -140 -4 -212 -5 -76 0 -133 -5 -133 -10 0
-15 80 -28 122 -20 22 3 42 2 49 -5 7 -6 10 -7 6 -1 -3 7 10 11 34 12 28 2 38
-1 32 -10 -5 -9 -3 -9 8 -1 8 7 56 12 121 12 59 0 111 3 117 6 5 4 12 2 16 -4
3 -5 1 -10 -6 -10 -7 0 -10 -3 -6 -6 3 -3 15 1 27 9 13 9 37 13 70 10 28 -2
60 2 71 8 15 8 19 8 15 0 -5 -7 3 -9 22 -5 37 8 42 -5 48 -116 3 -47 7 -91 9
-97 2 -7 -3 -13 -13 -13 -13 0 -14 -2 -3 -9 7 -5 14 -20 14 -35 0 -14 2 -24 6
-22 8 5 8 -50 0 -58 -3 -3 -175 -6 -383 -7 -277 -1 -376 -4 -373 -12 5 -16 66
-27 93 -16 13 4 26 5 28 0 3 -4 25 -5 48 -2 24 4 134 6 245 6 112 0 203 2 203
5 0 3 29 5 65 5 49 0 66 -4 70 -15 8 -26 9 -74 1 -97 -6 -19 -11 -21 -26 -13
-15 8 -22 6 -33 -10 -7 -11 -17 -17 -20 -13 -4 3 -7 2 -7 -4 0 -20 14 -22 27
-3 15 21 52 19 81 -3 8 -7 12 -5 12 5 0 8 -3 17 -6 21 -3 3 -5 78 -4 167 0
111 -2 160 -10 155 -6 -4 -6 4 2 20 8 19 9 31 1 43 -6 10 -7 26 -2 39 9 25 1
63 -13 63 -6 0 -5 7 2 15 10 12 10 15 -1 16 -8 0 -5 4 5 8 19 7 19 8 -1 13
-12 3 -24 4 -26 1z"/>
<path d="M2124 2328 c12 -7 21 -7 28 0 6 6 0 10 -18 10 -23 0 -24 -2 -10 -10z"/>
<path d="M2655 2330 c-3 -5 -1 -10 5 -10 6 0 8 -4 5 -10 -3 -5 -1 -10 4 -10 6
0 11 9 11 20 0 21 -15 27 -25 10z"/>
<path d="M2083 2305 c0 -8 4 -12 9 -9 5 3 6 10 3 15 -9 13 -12 11 -12 -6z"/>
<path d="M2133 2302 c-18 -9 -33 -20 -33 -25 0 -5 8 -3 17 4 15 12 16 12 10
-3 -10 -26 -1 -22 23 12 12 17 20 29 18 29 -2 -1 -18 -9 -35 -17z"/>
<path d="M2566 2308 c3 -4 11 -5 19 -1 21 7 19 12 -4 10 -11 0 -18 -5 -15 -9z"/>
<path d="M1433 2303 c9 -2 23 -2 30 0 6 3 -1 5 -18 5 -16 0 -22 -2 -12 -5z"/>
<path d="M2748 2302 c7 -5 13 -32 14 -66 2 -57 18 -92 18 -39 0 15 4 34 9 42
7 11 10 9 16 -8 3 -12 11 -18 17 -15 8 5 9 1 5 -10 -4 -9 -3 -15 1 -12 13 7
53 -24 46 -35 -3 -5 0 -8 8 -7 7 2 12 -3 10 -10 -1 -8 1 -11 6 -8 5 3 26 -13
46 -34 21 -22 43 -37 49 -33 11 7 -230 243 -248 243 -5 0 -4 -4 3 -8z"/>
<path d="M2166 2281 c-10 -10 -14 -21 -9 -24 5 -3 13 6 20 19 13 29 11 30 -11
5z"/>
<path d="M2044 2274 c-18 -14 -18 -15 4 -4 12 6 22 13 22 15 0 8 -5 6 -26 -11z"/>
<path d="M2530 2280 c-9 -6 -10 -10 -3 -10 6 0 15 5 18 10 8 12 4 12 -15 0z"/>
<path d="M2670 2279 c0 -5 5 -7 10 -4 6 3 10 8 10 11 0 2 -4 4 -10 4 -5 0 -10
-5 -10 -11z"/>
<path d="M2400 2270 c0 -5 5 -10 11 -10 5 0 7 5 4 10 -3 6 -8 10 -11 10 -2 0
-4 -4 -4 -10z"/>
<path d="M2650 2260 c0 -6 4 -10 9 -10 5 0 12 -12 14 -27 4 -27 4 -27 6 3 0
20 -5 34 -14 38 -8 3 -15 1 -15 -4z"/>
<path d="M1886 2243 c-6 -14 -5 -15 5 -6 7 7 10 15 7 18 -3 3 -9 -2 -12 -12z"/>
<path d="M2179 2243 c-13 -16 -12 -17 4 -4 9 7 17 15 17 17 0 8 -8 3 -21 -13z"/>
<path d="M2240 2228 c-10 -17 -16 -36 -12 -42 3 -6 6 -20 5 -31 -1 -16 -1 -16
3 -2 6 18 34 24 34 7 0 -5 5 -10 12 -10 6 0 4 8 -6 18 -12 14 -15 29 -11 55 8
45 1 47 -25 5z"/>
<path d="M2286 2225 c3 -16 8 -39 10 -50 5 -27 26 -65 35 -65 5 0 4 -11 -1
-25 -9 -24 3 -45 15 -25 3 5 3 10 0 10 -4 0 1 7 9 16 9 8 16 20 16 27 0 6 -5
5 -12 -4 -7 -8 -12 -12 -11 -10 2 2 -2 10 -8 17 -8 10 -5 16 9 25 17 10 18 15
7 26 -8 7 -18 13 -24 13 -6 0 -11 5 -11 12 0 6 -3 8 -7 4 -4 -4 -13 8 -20 26
-13 32 -13 32 -7 3z m55 -78 c-12 -12 -31 0 -31 19 0 12 3 12 20 2 11 -7 16
-16 11 -21z"/>
<path d="M2448 2243 c7 -3 16 -2 19 1 4 3 -2 6 -13 5 -11 0 -14 -3 -6 -6z"/>
<path d="M2030 2230 c0 -5 5 -10 11 -10 5 0 7 5 4 10 -3 6 -8 10 -11 10 -2 0
-4 -4 -4 -10z"/>
<path d="M2080 2229 c0 -5 5 -7 10 -4 6 3 10 8 10 11 0 2 -4 4 -10 4 -5 0 -10
-5 -10 -11z"/>
<path d="M2200 2229 c0 -5 5 -7 10 -4 6 3 10 8 10 11 0 2 -4 4 -10 4 -5 0 -10
-5 -10 -11z"/>
<path d="M2605 2231 c-3 -5 -2 -12 3 -15 5 -3 9 1 9 9 0 17 -3 19 -12 6z"/>
<path d="M2645 2230 c-3 -5 -1 -10 4 -10 6 0 11 5 11 10 0 6 -2 10 -4 10 -3 0
-8 -4 -11 -10z"/>
<path d="M2116 2221 c-3 -5 1 -11 9 -14 9 -4 12 -1 8 9 -6 16 -10 17 -17 5z"/>
<path d="M1950 2213 c0 -6 8 -17 18 -24 16 -13 16 -13 2 6 -8 11 -16 22 -17
24 -2 2 -3 0 -3 -6z"/>
<path d="M1996 2197 c3 -10 9 -15 12 -12 3 3 0 11 -7 18 -10 9 -11 8 -5 -6z"/>
<path d="M2079 2206 c-3 -4 -1 -24 4 -45 9 -33 7 -44 -12 -77 -21 -36 -21 -37
-2 -14 12 14 24 30 28 35 10 13 11 65 2 65 -4 0 -9 9 -11 21 -2 11 -6 18 -9
15z"/>
<path d="M2180 2200 c-9 -6 -10 -10 -3 -10 6 0 15 5 18 10 8 12 4 12 -15 0z"/>
<path d="M2183 2173 c-23 -16 -31 -43 -13 -43 6 0 9 3 9 8 -3 19 2 23 16 12
13 -11 15 -8 15 14 0 14 -1 26 -2 25 -2 0 -13 -7 -25 -16z"/>
<path d="M2015 2160 c28 -12 37 -12 30 0 -3 6 -16 10 -28 9 -21 0 -21 -1 -2
-9z"/>
<path d="M2125 2150 c3 -6 1 -10 -5 -10 -10 0 -5 -58 6 -69 5 -6 33 31 34 44
0 6 -4 3 -10 -5 -13 -21 -23 -5 -11 18 8 16 7 21 -5 26 -8 3 -12 2 -9 -4z"/>
<path d="M2667 2147 c-3 -8 -2 -20 3 -26 5 -9 8 -4 8 13 0 29 -3 32 -11 13z"/>
<path d="M2765 2146 c-4 -10 -3 -38 2 -62 7 -31 7 -45 -1 -48 -6 -3 -5 -5 3
-5 11 -1 11 -4 0 -18 -12 -14 -12 -16 1 -11 9 3 15 17 15 39 0 19 3 39 7 45 4
7 1 17 -7 24 -13 11 -13 14 2 27 10 8 13 12 6 9 -6 -4 -13 0 -16 6 -3 9 -7 7
-12 -6z"/>
<path d="M1163 2143 c-17 -6 -17 -20 0 -20 8 0 14 6 14 14 0 7 -1 13 -1 12 -1
0 -7 -3 -13 -6z"/>
<path d="M1924 2135 c3 -22 13 -27 19 -11 3 8 0 17 -8 19 -7 3 -12 0 -11 -8z"/>
<path d="M2247 2112 c-3 -15 -2 -48 2 -74 8 -47 -2 -90 -12 -52 -3 13 -5 10
-6 -9 -1 -16 -5 -26 -11 -22 -6 4 -8 10 -6 14 3 4 0 13 -5 21 -7 11 -8 7 -5
-12 3 -16 2 -28 -2 -28 -4 0 -12 -12 -19 -26 -11 -23 -10 -24 4 -12 14 11 16
10 10 -12 -4 -18 0 -35 14 -55 12 -17 18 -21 14 -10 -12 31 -7 67 13 88 9 11
11 17 5 13 -19 -10 -16 2 6 30 l19 25 16 -23 c10 -14 16 -17 16 -8 0 10 3 11
11 3 21 -21 6 -34 -21 -20 -24 13 -26 12 -28 -7 -1 -15 1 -17 7 -7 7 11 12 9
21 -9 l12 -23 17 22 c24 31 20 101 -7 139 -26 35 -28 46 -7 38 13 -5 13 -2 -1
19 -9 14 -21 25 -28 25 -6 0 -6 -4 3 -9 10 -7 11 -13 1 -31 -10 -18 -9 -24 1
-31 8 -5 10 -9 5 -9 -5 0 -2 -8 6 -17 9 -10 19 -29 22 -43 7 -24 7 -25 -10 -5
-16 20 -16 20 -9 -2 9 -33 -2 -28 -21 8 -15 30 -15 32 2 25 17 -6 17 -6 -1 14
-10 11 -14 20 -10 20 5 0 4 5 -3 12 -14 14 -16 32 -3 24 14 -9 20 18 6 31 -10
9 -14 6 -18 -15z m-28 -191 c-15 -5 -22 6 -14 19 6 9 10 9 16 -1 5 -8 4 -15
-2 -18z"/>
<path d="M1191 2114 c0 -11 3 -14 6 -6 3 7 2 16 -1 19 -3 4 -6 -2 -5 -13z"/>
<path d="M1868 2109 c-22 -12 -23 -26 -3 -26 8 0 13 3 10 5 -3 3 0 11 6 19 13
15 10 16 -13 2z"/>
<path d="M2203 2093 c-4 -16 -6 -34 -4 -42 1 -7 -2 -11 -6 -8 -5 3 -10 -9 -11
-26 l-2 -32 14 30 c15 34 30 105 22 105 -3 0 -9 -12 -13 -27z"/>
<path d="M1318 2103 c7 -3 16 -2 19 1 4 3 -2 6 -13 5 -11 0 -14 -3 -6 -6z"/>
<path d="M1262 2063 c-9 -28 -9 -40 0 -48 8 -7 9 -6 4 2 -3 6 -1 17 6 25 16
16 23 58 10 58 -5 0 -14 -17 -20 -37z"/>
<path d="M990 2081 c0 -7 -5 -9 -12 -5 -7 5 -8 3 -3 -5 5 -9 10 -10 18 -2 6 6
8 14 4 18 -4 3 -7 1 -7 -6z"/>
<path d="M1181 2072 c-1 -13 -5 -21 -10 -17 -16 9 -20 -9 -5 -23 11 -10 15 -8
20 12 3 14 4 31 1 38 -3 7 -6 3 -6 -10z"/>
<path d="M2500 2080 c-8 -5 -10 -10 -5 -10 6 0 17 5 25 10 8 5 11 10 5 10 -5
0 -17 -5 -25 -10z"/>
<path d="M1826 2066 c5 -14 -32 -56 -50 -56 -5 0 -7 -3 -4 -6 9 -8 57 25 68
46 7 13 6 20 -5 23 -9 4 -12 1 -9 -7z"/>
<path d="M35 2060 c6 -10 3 -12 -13 -8 -15 4 -22 2 -22 -8 0 -12 47 -14 285
-14 188 0 285 3 285 10 0 6 -22 9 -55 8 -31 -2 -57 1 -59 7 -3 6 -5 6 -5 -1
-1 -6 -17 -9 -38 -7 -21 2 -110 5 -198 6 -88 1 -166 6 -174 11 -10 7 -12 6 -6
-4z"/>
<path d="M1065 2061 c3 -5 1 -12 -5 -16 -5 -3 -10 -16 -10 -28 0 -19 2 -18 19
9 11 18 25 34 33 37 7 3 0 6 -15 6 -16 1 -26 -3 -22 -8z"/>
<path d="M2078 2045 c-23 -20 -25 -24 -9 -22 11 1 17 5 14 11 -3 5 -1 6 4 3 6
-4 16 0 22 7 21 25 -3 25 -31 1z"/>
<path d="M593 2053 c-23 -8 -14 -19 15 -17 15 1 35 -3 44 -7 10 -5 19 -5 23 0
6 11 -33 26 -42 17 -4 -3 -11 -2 -17 3 -6 4 -17 6 -23 4z"/>
<path d="M1485 2050 c-3 -5 -1 -10 4 -10 6 0 11 5 11 10 0 6 -2 10 -4 10 -3 0
-8 -4 -11 -10z"/>
<path d="M2130 2048 c0 -10 5 -18 11 -18 8 0 8 -4 1 -13 -6 -7 -9 -38 -7 -70
2 -31 -1 -57 -6 -57 -5 0 -9 -5 -9 -11 0 -8 5 -8 15 1 13 11 14 8 11 -19 -2
-21 1 -31 10 -31 21 0 26 -36 19 -131 -4 -57 -3 -115 5 -157 16 -91 20 -102
30 -77 4 12 3 26 -4 34 -8 11 -8 13 2 7 14 -8 16 6 3 20 -17 17 -14 246 3 238
6 -3 3 1 -6 9 -10 8 -18 17 -18 20 0 4 8 4 18 1 16 -5 16 -5 0 9 -10 8 -15 17
-12 20 3 3 0 16 -7 29 -7 12 -12 27 -11 31 1 5 -2 6 -8 2 -5 -3 -10 -3 -11 2
0 4 -2 18 -5 30 -3 18 0 21 14 16 13 -5 12 -1 -5 19 -27 29 -29 44 -7 66 14
13 14 17 3 21 -8 2 -17 9 -21 15 -5 7 -8 4 -8 -6z"/>
<path d="M699 2037 c5 -5 17 -5 28 2 16 9 15 10 -9 9 -16 -2 -24 -6 -19 -11z"/>
<path d="M1305 2022 c-14 -10 -19 -46 -6 -37 6 3 11 12 11 20 0 7 6 16 13 18
6 3 8 6 2 6 -5 0 -14 -3 -20 -7z"/>
<path d="M1736 2005 c-9 -14 -13 -25 -8 -25 5 0 14 11 20 25 6 14 10 25 8 25
-2 0 -11 -11 -20 -25z"/>
<path d="M1860 2021 c0 -7 -4 -9 -10 -6 -5 3 -10 1 -10 -4 0 -6 4 -11 9 -11
13 0 25 20 17 27 -3 4 -6 1 -6 -6z"/>
<path d="M2096 2023 c-7 -8 -11 -9 -37 -12 -5 0 -7 -6 -4 -11 4 -6 3 -9 -2 -8
-4 1 -25 -1 -45 -5 -23 -5 -46 -4 -58 3 -16 9 -20 8 -20 -6 0 -10 5 -14 15
-10 8 3 15 1 15 -4 0 -6 9 -10 20 -10 11 0 20 5 20 11 0 5 5 7 10 4 6 -4 8
-12 4 -18 -3 -7 1 -4 10 7 9 12 23 17 36 13 11 -3 18 -1 14 4 -3 5 6 14 20 21
14 6 26 15 26 20 0 10 -14 11 -24 1z"/>
<path d="M2020 2009 c0 -5 5 -7 10 -4 6 3 10 8 10 11 0 2 -4 4 -10 4 -5 0 -10
-5 -10 -11z"/>
<path d="M871 1996 c-6 -8 -11 -18 -10 -22 4 -21 -3 -30 -31 -42 -23 -11 -28
-17 -21 -30 4 -9 6 -22 4 -29 -2 -6 1 -14 7 -18 12 -8 40 12 40 28 0 7 -4 7
-12 -1 -7 -7 -15 -12 -19 -12 -10 0 5 53 17 57 14 5 36 -36 27 -50 -4 -7 -8
-19 -8 -27 0 -8 -4 -20 -8 -27 -10 -16 2 -43 19 -43 17 0 16 -3 5 37 -7 25 -6
33 7 38 14 5 14 7 2 15 -12 8 -11 10 5 11 11 0 14 3 8 6 -7 2 -13 9 -13 14 0
6 4 8 9 5 5 -3 11 1 15 9 3 8 1 15 -5 15 -6 0 -7 5 -3 11 5 8 1 8 -14 0 -30
-16 -35 -14 -18 10 8 12 12 28 9 37 -5 11 -3 13 7 7 9 -5 11 -4 6 3 -9 15 -11
15 -25 -2z m29 -70 c0 -2 -7 -7 -16 -10 -8 -3 -12 -2 -9 4 6 10 25 14 25 6z"/>
<path d="M1158 1990 c-17 -19 -20 -60 -5 -60 4 0 7 8 5 18 -2 11 3 26 11 36 8
9 12 18 9 21 -2 2 -11 -4 -20 -15z"/>
<path d="M1263 1950 c0 -30 2 -43 4 -27 2 15 2 39 0 55 -2 15 -4 2 -4 -28z"/>
<path d="M1391 1984 c0 -11 3 -14 6 -6 3 7 2 16 -1 19 -3 4 -6 -2 -5 -13z"/>
<path d="M1442 1975 c-7 -16 -8 -26 -1 -30 5 -4 9 -3 8 2 -1 4 1 16 6 26 4 10
5 20 3 22 -3 3 -10 -6 -16 -20z"/>
<path d="M2150 1986 c0 -8 5 -18 10 -21 6 -3 10 3 10 14 0 12 -4 21 -10 21 -5
0 -10 -6 -10 -14z"/>
<path d="M2390 1993 c-25 -10 -41 -43 -20 -43 6 0 9 4 8 9 -2 5 6 17 17 25 21
16 20 18 -5 9z"/>
<path d="M2645 1990 c3 -5 8 -10 11 -10 2 0 4 5 4 10 0 6 -5 10 -11 10 -5 0
-7 -4 -4 -10z"/>
<path d="M1785 1980 c-3 -5 -1 -10 4 -10 6 0 11 5 11 10 0 6 -2 10 -4 10 -3 0
-8 -4 -11 -10z"/>
<path d="M2554 1982 c3 -5 1 -12 -6 -14 -8 -3 -6 -7 5 -11 20 -7 24 17 5 29
-6 4 -8 3 -4 -4z"/>
<path d="M809 1978 c-8 -27 -5 -35 12 -31 11 3 22 10 26 16 3 6 1 7 -5 3 -7
-4 -12 -2 -12 3 0 9 -18 16 -21 9z"/>
<path d="M1015 1970 c-3 -6 1 -7 9 -4 18 7 21 14 7 14 -6 0 -13 -4 -16 -10z"/>
<path d="M957 1963 c-4 -3 -7 -11 -7 -17 0 -6 5 -5 12 2 6 6 9 14 7 17 -3 3
-9 2 -12 -2z"/>
<path d="M2039 1953 c-13 -16 -12 -17 4 -4 9 7 17 15 17 17 0 8 -8 3 -21 -13z"/>
<path d="M2635 1960 c-3 -6 1 -7 9 -4 18 7 21 14 7 14 -6 0 -13 -4 -16 -10z"/>
<path d="M1221 1939 c-5 -13 -6 -28 -3 -34 3 -5 9 4 14 20 9 36 2 46 -11 14z"/>
<path d="M1397 1948 c-9 -7 -15 -22 -12 -33 2 -11 4 -27 4 -36 1 -9 8 -20 17
-23 8 -3 12 -2 9 4 -9 14 7 12 27 -4 10 -7 14 -17 10 -21 -4 -4 5 -5 20 -1 20
5 26 3 22 -7 -2 -7 6 -22 19 -33 22 -20 25 -20 43 -5 19 17 44 55 44 68 0 4
-12 -9 -26 -28 -14 -19 -30 -33 -36 -31 -12 3 -42 32 -33 32 3 0 1 9 -5 20
-11 21 -30 27 -30 9 0 -5 5 -7 12 -3 7 4 8 3 4 -5 -6 -9 -12 -9 -24 0 -30 23
-61 57 -56 62 5 5 14 47 10 47 -1 0 -10 -6 -19 -12z"/>
<path d="M1740 1949 c0 -5 5 -7 10 -4 6 3 10 8 10 11 0 2 -4 4 -10 4 -5 0 -10
-5 -10 -11z"/>
<path d="M1797 1943 c-4 -3 -6 -27 -6 -52 l2 -46 7 50 c8 53 7 59 -3 48z"/>
<path d="M2766 1925 c-2 -7 3 -19 12 -27 9 -8 13 -8 9 -1 -4 6 -3 13 2 15 5 1
3 8 -4 15 -10 10 -14 9 -19 -2z"/>
<path d="M1716 1911 c-13 -14 -14 -21 -5 -27 8 -4 10 -3 5 4 -4 7 -2 12 4 12
8 0 10 -9 5 -27 -4 -16 -8 -32 -9 -38 -1 -5 -5 -15 -8 -20 -4 -6 -3 -17 3 -25
5 -8 9 -13 10 -10 0 3 3 16 6 30 3 14 6 43 7 65 0 22 5 43 11 47 6 5 6 8 -1 8
-6 0 -19 -9 -28 -19z"/>
<path d="M2037 1915 c4 -11 12 -24 19 -30 7 -5 15 -22 17 -37 1 -15 6 -30 9
-34 4 -3 4 -13 1 -22 -4 -13 -3 -14 5 -4 13 20 -4 81 -34 117 -17 20 -22 23
-17 10z"/>
<path d="M2070 1914 c0 -8 5 -12 10 -9 6 4 8 11 5 16 -9 14 -15 11 -15 -7z"/>
<path d="M1470 1905 c-16 -19 -7 -30 14 -18 9 5 12 13 7 21 -6 10 -11 10 -21
-3z"/>
<path d="M930 1900 c-13 -8 -12 -10 3 -10 9 0 17 5 17 10 0 12 -1 12 -20 0z"/>
<path d="M1577 1890 c-9 -11 -17 -24 -17 -30 0 -21 -22 -20 -41 2 -19 21 -18
20 1 -10 l22 -33 30 41 c31 42 35 65 5 30z"/>
<path d="M1755 1899 c-4 -6 -5 -12 -2 -15 2 -3 7 2 10 11 7 17 1 20 -8 4z"/>
<path d="M2274 1883 c0 -17 3 -31 6 -31 26 2 30 -3 19 -23 -7 -14 -7 -25 -1
-31 6 -6 12 4 16 28 5 24 3 40 -5 48 -9 8 -10 8 -5 -1 4 -7 3 -13 -1 -13 -5 0
-14 12 -20 28 l-11 27 2 -32z"/>
<path d="M2249 1885 c0 -5 -2 -21 -3 -35 -2 -14 4 -31 13 -38 14 -11 14 -12
-4 -10 -12 2 -21 -4 -23 -14 -2 -10 1 -18 7 -18 6 0 11 5 11 12 0 6 3 8 7 4 4
-4 -3 -16 -17 -28 -14 -11 -19 -17 -12 -13 7 4 12 -1 12 -14 0 -29 14 -33 39
-10 19 18 20 23 9 37 -10 12 -10 14 -1 8 10 -5 11 -1 3 18 -5 14 -8 31 -6 38
1 7 1 10 -1 6 -10 -17 -20 -7 -18 16 2 13 -1 29 -6 37 -5 8 -9 10 -10 4z m24
-139 c4 -10 1 -13 -8 -9 -8 3 -12 9 -9 14 7 12 11 11 17 -5z"/>
<path d="M2765 1870 c-3 -5 -1 -10 4 -10 6 0 11 5 11 10 0 6 -2 10 -4 10 -3 0
-8 -4 -11 -10z"/>
<path d="M833 1846 c-16 -7 -23 -20 -23 -39 0 -15 3 -26 8 -24 6 5 10 -12 12
-65 1 -10 5 -20 9 -23 15 -9 18 43 5 82 -11 32 -11 41 2 60 8 13 13 22 12 22
-2 -1 -13 -6 -25 -13z"/>
<path d="M2116 1845 c-3 -8 -1 -15 3 -15 5 0 11 7 15 15 3 8 1 15 -3 15 -5 0
-11 -7 -15 -15z"/>
<path d="M1774 1787 c0 -34 1 -47 3 -29 2 18 9 30 14 26 6 -3 7 5 3 23 -12 50
-19 43 -20 -20z"/>
<path d="M1645 1798 c1 -24 3 -52 4 -62 1 -15 4 -17 12 -9 8 8 8 17 1 29 -8
14 -6 21 6 31 10 7 12 13 5 13 -6 0 -9 9 -6 20 4 14 0 20 -10 20 -12 0 -15
-10 -12 -42z"/>
<path d="M1965 1819 c-4 -6 -5 -12 -2 -15 2 -3 7 2 10 11 7 17 1 20 -8 4z"/>
<path d="M2026 1814 c-9 -8 -16 -21 -15 -27 0 -8 2 -8 6 1 2 6 10 9 16 5 7 -3
9 -3 5 2 -4 4 -3 14 3 22 16 18 4 16 -15 -3z"/>
<path d="M1600 1809 c0 -5 5 -7 10 -4 6 3 10 8 10 11 0 2 -4 4 -10 4 -5 0 -10
-5 -10 -11z"/>
<path d="M2136 1787 c3 -10 9 -15 12 -12 3 3 0 11 -7 18 -10 9 -11 8 -5 -6z"/>
<path d="M1688 1765 c-5 -25 -4 -25 10 -11 12 11 13 19 5 27 -7 7 -12 3 -15
-16z"/>
<path d="M1564 1762 c-3 -9 -10 -26 -16 -37 -10 -18 -9 -19 5 -6 10 7 17 19
17 26 0 8 8 15 18 17 16 3 16 4 -1 11 -12 4 -19 1 -23 -11z"/>
<path d="M714 1764 c-7 -3 -3 -21 12 -52 15 -29 24 -68 25 -102 l2 -55 6 45
c6 42 -6 97 -30 142 -15 28 10 22 50 -12 36 -30 54 -33 31 -5 -14 17 -64 46
-77 44 -4 0 -13 -3 -19 -5z"/>
<path d="M869 1723 c-2 -66 -3 -70 -10 -78 -7 -6 0 -116 7 -124 11 -12 16 16
21 106 3 57 1 108 -5 123 -10 22 -11 19 -13 -27z"/>
<path d="M1722 1745 c0 -16 2 -22 5 -12 2 9 2 23 0 30 -3 6 -5 -1 -5 -18z"/>
<path d="M2010 1741 c0 -10 -3 -27 -7 -37 -6 -16 -5 -16 8 -4 17 16 22 47 8
55 -5 4 -9 -3 -9 -14z"/>
<path d="M2431 1757 c2 -1 13 -9 24 -17 19 -14 19 -14 6 3 -7 9 -18 17 -24 17
-6 0 -8 -1 -6 -3z"/>
<path d="M2076 1733 c-6 -14 -5 -15 5 -6 7 7 10 15 7 18 -3 3 -9 -2 -12 -12z"/>
<path d="M2101 1743 c-1 -17 16 -25 25 -12 4 7 3 9 -4 5 -5 -3 -13 0 -15 6 -4
9 -6 10 -6 1z"/>
<path d="M687 1726 c-3 -9 0 -21 7 -28 7 -7 13 -20 13 -28 1 -8 1 -31 2 -50 1
-19 2 -62 2 -95 0 -85 4 -117 16 -140 6 -11 18 -51 27 -88 21 -85 45 -134 69
-140 23 -7 22 -4 -13 33 -29 31 -37 63 -30 124 1 12 -2 16 -11 11 -8 -5 -10
-4 -5 3 4 6 -1 26 -11 44 -13 25 -18 63 -20 160 -3 97 -8 136 -22 168 -13 29
-20 37 -24 26z"/>
<path d="M2361 1720 c-24 -11 -49 -20 -57 -20 -8 0 -14 -6 -14 -14 0 -7 -10
-17 -22 -21 -15 -4 -18 -8 -10 -12 7 -3 24 5 37 17 16 15 32 21 49 18 16 -3
26 -1 26 7 0 6 11 17 25 23 38 17 41 15 15 -13 -20 -21 -23 -36 -26 -122 -3
-75 -1 -94 7 -79 6 10 11 36 11 57 -1 26 3 37 10 33 7 -5 8 -2 2 7 -10 16 -12
69 -2 63 3 -2 9 2 11 8 4 10 8 9 16 -2 10 -14 7 -92 -4 -109 -2 -4 -6 -18 -8
-32 -3 -13 -12 -41 -20 -62 -9 -21 -17 -41 -18 -45 -4 -21 -40 -79 -58 -96
-15 -13 -21 -31 -21 -60 0 -55 10 -42 71 99 28 66 55 125 60 130 4 6 11 57 15
113 6 94 5 104 -12 117 -25 19 -31 18 -83 -5z"/>
<path d="M2101 1703 c7 -12 15 -20 18 -17 3 2 -3 12 -13 22 -17 16 -18 16 -5
-5z"/>
<path d="M1768 1703 c7 -3 16 -2 19 1 4 3 -2 6 -13 5 -11 0 -14 -3 -6 -6z"/>
<path d="M2070 1702 c0 -12 19 -26 26 -19 2 2 -2 10 -11 17 -9 8 -15 8 -15 2z"/>
<path d="M1105 1690 c-3 -6 1 -7 9 -4 18 7 21 14 7 14 -6 0 -13 -4 -16 -10z"/>
<path d="M2224 1685 c-4 -9 -2 -21 5 -26 6 -5 9 -6 6 -3 -3 4 0 13 6 20 7 8 7
14 -1 19 -5 3 -13 -1 -16 -10z"/>
<path d="M1073 1663 c-7 -18 -22 -33 -35 -33 -4 0 -5 7 -2 15 5 11 -1 15 -17
15 -19 0 -21 -2 -9 -10 12 -8 12 -10 1 -10 -11 0 -11 -3 -1 -15 11 -14 10 -14
-12 -6 -17 6 -25 6 -25 -2 0 -7 16 -12 38 -12 20 0 35 3 32 8 -2 4 5 7 15 7
14 0 21 8 24 30 5 33 1 39 -9 13z"/>
<path d="M2100 1655 c0 -7 5 -17 10 -20 6 -4 8 -11 5 -16 -3 -5 0 -6 8 -3 9 3
13 13 10 24 -6 23 -33 35 -33 15z"/>
<path d="M1977 1649 c7 -7 15 -10 18 -7 3 3 -2 9 -12 12 -14 6 -15 5 -6 -5z"/>
<path d="M1100 1635 c7 -8 16 -13 20 -10 5 3 10 -1 13 -7 3 -9 11 -6 26 10 17
17 18 22 6 22 -8 0 -15 -7 -15 -16 0 -14 -2 -14 -22 0 -28 20 -44 21 -28 1z"/>
<path d="M2339 1630 c-49 -78 -88 -153 -84 -160 3 -4 14 -6 25 -3 11 3 17 9
14 14 -3 5 -10 7 -15 4 -14 -9 32 67 58 96 15 17 23 36 21 50 l-3 24 -16 -25z"/>
<path d="M2770 1646 c0 -2 7 -6 15 -10 8 -3 15 -1 15 4 0 6 -7 10 -15 10 -8 0
-15 -2 -15 -4z"/>
<path d="M1262 1628 c-15 -15 -15 -35 -1 -44 7 -4 9 0 5 14 -5 14 -1 24 11 31
10 6 13 11 8 11 -6 0 -16 -5 -23 -12z"/>
<path d="M2015 1631 c-3 -6 -12 -8 -19 -5 -8 3 -17 1 -20 -5 -4 -6 -13 -8 -20
-5 -8 3 -17 1 -21 -5 -3 -6 -3 -11 2 -12 4 0 16 -2 26 -4 10 -2 17 3 17 12 0
9 6 12 18 9 21 -7 49 8 34 18 -6 3 -13 2 -17 -3z"/>
<path d="M2213 1625 c0 -20 29 -15 34 5 4 13 3 13 -6 0 -7 -10 -11 -11 -11 -2
0 6 -4 12 -8 12 -5 0 -9 -7 -9 -15z"/>
<path d="M816 1596 c5 -33 11 -43 20 -33 4 4 2 12 -3 19 -6 7 -13 20 -16 28
-2 8 -3 2 -1 -14z"/>
<path d="M774 1595 c4 -24 16 -30 16 -7 0 12 -4 22 -9 22 -5 0 -8 -7 -7 -15z"/>
<path d="M1160 1606 c0 -2 8 -10 18 -17 15 -13 16 -12 3 4 -13 16 -21 21 -21
13z"/>
<path d="M1206 1595 c7 -17 20 -20 28 -6 3 5 -1 12 -10 15 -22 9 -24 8 -18 -9z"/>
<path d="M1785 1599 c-4 -6 -5 -12 -2 -15 2 -3 7 2 10 11 7 17 1 20 -8 4z"/>
<path d="M1860 1608 c0 -3 8 -14 18 -25 17 -20 42 -21 42 -1 0 5 -6 8 -12 5
-7 -2 -21 2 -30 11 -10 8 -18 13 -18 10z"/>
<path d="M2020 1599 c0 -6 7 -9 15 -6 8 4 17 1 21 -5 4 -6 3 -8 -2 -5 -6 3
-16 -4 -23 -16 -11 -18 -11 -20 0 -9 7 6 22 12 32 12 13 0 17 5 13 16 -3 9 -6
18 -6 20 0 2 -11 4 -25 4 -14 0 -25 -5 -25 -11z"/>
<path d="M1316 1591 c-3 -5 1 -14 8 -20 16 -13 32 2 21 19 -8 12 -22 13 -29 1z"/>
<path d="M1733 1593 c-18 -2 -33 -7 -34 -11 0 -4 -2 -14 -4 -23 -1 -9 3 -16
11 -16 7 0 11 4 8 9 -3 4 0 8 6 8 6 0 8 5 5 10 -3 6 1 10 9 10 9 0 16 -4 16
-8 0 -5 6 -9 14 -9 8 0 11 8 8 19 -2 10 -5 17 -6 16 0 0 -16 -3 -33 -5z"/>
<path d="M1370 1582 c0 -4 9 -8 20 -9 11 -1 18 2 15 8 -7 11 -35 12 -35 1z"/>
<path d="M1653 1570 c-12 -9 -20 -20 -17 -23 3 -3 15 4 26 15 26 26 20 32 -9
8z"/>
<path d="M1820 1580 c-21 -7 -21 -8 -5 -9 11 0 27 4 35 9 18 11 5 11 -30 0z"/>
<path d="M1427 1569 c7 -7 15 -10 18 -7 3 3 -2 9 -12 12 -14 6 -15 5 -6 -5z"/>
<path d="M1998 1573 c7 -3 16 -2 19 1 4 3 -2 6 -13 5 -11 0 -14 -3 -6 -6z"/>
<path d="M2135 1570 c3 -5 8 -10 11 -10 2 0 4 5 4 10 0 6 -5 10 -11 10 -5 0
-7 -4 -4 -10z"/>
<path d="M2350 1558 c0 -19 2 -20 10 -8 13 19 13 30 0 30 -5 0 -10 -10 -10
-22z"/>
<path d="M2210 1558 c0 -7 8 -22 17 -33 14 -18 15 -18 9 -2 -3 10 -6 25 -6 33
0 8 -4 14 -10 14 -5 0 -10 -6 -10 -12z"/>
<path d="M770 1550 c0 -5 5 -10 10 -10 6 0 10 5 10 10 0 6 -4 10 -10 10 -5 0
-10 -4 -10 -10z"/>
<path d="M1378 1553 c7 -3 16 -2 19 1 4 3 -2 6 -13 5 -11 0 -14 -3 -6 -6z"/>
<path d="M1820 1550 c-13 -8 -12 -10 3 -10 9 0 17 5 17 10 0 12 -1 12 -20 0z"/>
<path d="M800 1539 c0 -5 5 -7 10 -4 15 10 12 -11 -4 -25 -8 -6 -12 -19 -9
-28 4 -15 3 -15 -6 -2 -6 8 -8 23 -5 32 4 12 0 15 -14 11 -19 -4 -19 -7 -4
-36 9 -17 16 -53 15 -79 0 -44 2 -48 20 -42 20 6 20 6 4 -10 -20 -20 -21 -32
-6 -42 6 -3 9 -19 5 -35 -9 -49 11 -41 28 10 20 62 20 66 -1 86 -23 24 -30
108 -10 139 9 13 13 26 10 30 -10 10 -33 7 -33 -5z m34 -220 c-8 -14 -21 -11
-21 5 0 8 6 12 14 9 7 -3 10 -9 7 -14z"/>
<path d="M1083 1535 c-19 -21 -16 -27 7 -13 11 7 20 16 20 20 0 12 -14 9 -27
-7z"/>
<path d="M1661 1534 c0 -11 3 -14 6 -6 3 7 2 16 -1 19 -3 4 -6 -2 -5 -13z"/>
<path d="M2055 1540 c-3 -5 -1 -10 4 -10 6 0 11 5 11 10 0 6 -2 10 -4 10 -3 0
-8 -4 -11 -10z"/>
<path d="M1760 1530 c-8 -5 -10 -10 -5 -10 6 0 17 5 25 10 8 5 11 10 5 10 -5
0 -17 -5 -25 -10z"/>
<path d="M2100 1520 c0 -11 4 -20 9 -20 5 0 7 9 4 20 -3 11 -7 20 -9 20 -2 0
-4 -9 -4 -20z"/>
<path d="M2255 1529 c-4 -6 -5 -12 -2 -15 2 -3 7 2 10 11 7 17 1 20 -8 4z"/>
<path d="M1046 1515 c4 -8 8 -15 10 -15 2 0 4 7 4 15 0 8 -4 15 -10 15 -5 0
-7 -7 -4 -15z"/>
<path d="M839 1504 c0 -10 -2 -28 -5 -39 -6 -29 6 -76 17 -69 6 3 8 31 5 61
-5 54 -15 84 -17 47z"/>
<path d="M1959 1506 c8 -10 22 -14 35 -11 12 3 15 2 9 -1 -7 -3 -13 -13 -13
-22 0 -15 1 -15 16 0 12 11 13 21 6 33 -6 12 -11 14 -16 6 -5 -8 -13 -8 -29 1
-20 10 -21 10 -8 -6z"/>
<path d="M885 1479 c-3 -13 -4 -35 -1 -49 2 -14 5 -32 5 -39 1 -21 17 -2 26
29 5 19 4 22 -4 10 -9 -12 -11 -7 -9 22 2 44 -8 61 -17 27z"/>
<path d="M2350 1480 c7 -14 7 -20 0 -20 -5 0 -10 -7 -10 -16 0 -11 -5 -14 -17
-9 -14 5 -16 4 -6 -6 10 -10 17 -9 33 9 24 25 27 62 5 62 -13 0 -14 -4 -5 -20z"/>
<path d="M1072 1458 c7 -13 17 -26 22 -29 5 -4 6 -11 2 -17 -3 -5 3 -21 13
-33 16 -19 22 -22 32 -11 11 10 11 14 0 25 -10 10 -11 9 -5 -6 5 -13 2 -16
-10 -11 -9 3 -16 13 -16 21 0 12 9 14 50 8 32 -4 50 -3 50 3 0 6 -10 9 -21 7
-25 -5 -76 19 -100 46 -22 26 -32 24 -17 -3z"/>
<path d="M1666 1458 c-19 -27 -13 -36 9 -14 9 9 13 16 8 16 -4 0 -1 5 7 10 9
6 10 10 3 10 -6 0 -19 -10 -27 -22z"/>
<path d="M1920 1466 c7 -7 13 -7 20 0 6 6 3 10 -10 10 -13 0 -16 -4 -10 -10z"/>
<path d="M2232 1433 c0 -22 -3 -55 -6 -74 l-7 -34 20 35 c13 23 17 45 14 65
-9 47 -22 52 -21 8z"/>
<path d="M1035 1450 c4 -6 11 -8 16 -5 14 9 11 15 -7 15 -8 0 -12 -5 -9 -10z"/>
<path d="M1390 1450 c0 -6 4 -9 9 -6 5 4 12 1 14 -4 3 -6 4 -5 3 2 -3 15 -26
23 -26 8z"/>
<path d="M1437 1429 c4 -13 8 -18 11 -10 2 7 -1 18 -6 23 -8 8 -9 4 -5 -13z"/>
<path d="M1993 1443 c17 -16 -58 -45 -119 -45 -35 -1 -61 -6 -57 -10 3 -5 23
-8 46 -6 50 4 58 -13 15 -34 l-33 -16 30 2 c16 2 31 8 33 15 3 9 8 9 20 -1 14
-10 15 -10 5 2 -7 8 -13 21 -13 30 0 12 2 12 9 2 11 -17 22 -14 39 9 7 11 20
19 28 19 8 0 14 9 14 20 0 11 -5 20 -12 20 -6 0 -8 -3 -5 -7z"/>
<path d="M1734 1426 c11 -9 17 -18 14 -21 -7 -8 -38 5 -38 16 0 5 -7 9 -15 9
-8 0 -15 -7 -15 -15 0 -9 6 -12 15 -9 8 4 15 2 15 -4 0 -5 8 -12 18 -15 9 -3
35 -12 57 -21 l40 -17 -25 20 c-14 11 -30 21 -37 21 -7 0 -10 6 -7 14 3 9 -4
19 -18 26 -22 11 -22 10 -4 -4z"/>
<path d="M2058 1433 c7 -3 16 -2 19 1 4 3 -2 6 -13 5 -11 0 -14 -3 -6 -6z"/>
<path d="M1265 1423 c-30 -5 -60 -23 -37 -23 7 0 12 -7 12 -15 0 -19 13 -19
53 2 18 9 26 18 19 20 -6 3 -10 9 -6 14 3 5 2 8 -3 8 -4 -1 -21 -4 -38 -6z
m21 -28 c-22 -17 -36 -19 -36 -7 0 14 12 22 34 22 21 -1 21 -1 2 -15z"/>
<path d="M1326 1415 c7 -17 32 -19 53 -6 16 10 5 17 -31 19 -20 1 -26 -2 -22
-13z"/>
<path d="M1637 1415 c3 -8 9 -12 14 -9 12 7 11 11 -5 17 -10 4 -13 1 -9 -8z"/>
<path d="M1770 1406 c0 -2 7 -9 15 -16 12 -10 15 -10 15 4 0 9 -7 16 -15 16
-8 0 -15 -2 -15 -4z"/>
<path d="M2106 1393 c-6 -14 -5 -15 5 -6 7 7 10 15 7 18 -3 3 -9 -2 -12 -12z"/>
<path d="M2184 1368 c0 -10 1 -18 3 -18 1 0 7 8 12 18 7 13 6 19 -2 19 -7 0
-13 -9 -13 -19z"/>
<path d="M2288 1360 c-3 -17 -1 -30 3 -30 10 0 18 50 9 55 -4 3 -10 -9 -12
-25z"/>
<path d="M1730 1360 c0 -5 6 -10 14 -10 10 0 12 -7 8 -22 -3 -14 -2 -19 7 -14
6 4 9 12 6 17 -4 5 -1 9 6 9 7 0 4 7 -7 15 -23 17 -34 19 -34 5z"/>
<path d="M1836 1359 c4 -7 44 0 44 7 0 2 -11 3 -24 2 -14 -1 -23 -5 -20 -9z"/>
<path d="M1446 1345 c-11 -8 -15 -15 -9 -15 6 0 16 7 23 15 16 19 11 19 -14 0z"/>
<path d="M1146 1343 c6 -4 14 -15 17 -23 5 -11 6 -9 4 4 -1 11 -9 21 -17 23
-10 3 -11 2 -4 -4z"/>
<path d="M1278 1343 c-10 -2 -18 -9 -18 -14 0 -6 10 -5 23 2 37 20 36 23 -5
12z"/>
<path d="M676 1323 c-6 -14 -5 -15 5 -6 7 7 10 15 7 18 -3 3 -9 -2 -12 -12z"/>
<path d="M1598 1333 c6 -2 10 -8 7 -13 -3 -4 4 -19 16 -31 l21 -24 -15 24 c-9
13 -13 30 -10 37 3 9 -2 14 -13 13 -11 0 -14 -3 -6 -6z"/>
<path d="M2165 1330 c3 -5 8 -10 11 -10 2 0 4 5 4 10 0 6 -5 10 -11 10 -5 0
-7 -4 -4 -10z"/>
<path d="M2232 1324 c-6 -7 -12 -18 -12 -24 0 -5 -5 -10 -11 -10 -6 0 -8 -7
-5 -16 3 -8 0 -25 -6 -37 -7 -12 -13 -27 -13 -32 0 -6 -8 -21 -18 -35 -13 -18
-17 -20 -17 -8 0 9 5 20 10 23 6 4 8 10 5 15 -3 5 -1 18 5 29 7 14 7 22 0 26
-6 4 -10 3 -9 -2 1 -4 -1 -15 -4 -23 -13 -32 -36 -120 -31 -120 3 0 0 -9 -6
-20 -6 -11 -7 -20 -2 -20 6 0 12 9 15 20 3 13 10 18 21 14 12 -5 15 -2 10 11
-5 13 -3 16 7 13 16 -6 14 -71 -2 -76 -5 -2 -9 -12 -9 -22 0 -56 -40 -84 -80
-56 -10 7 -9 4 3 -10 9 -11 16 -23 15 -25 -2 -2 2 1 7 7 13 14 35 6 35 -12 0
-10 -5 -12 -12 -8 -9 5 -8 2 1 -9 20 -25 5 -33 -20 -11 l-22 19 14 -25 c19
-36 20 -52 3 -65 -8 -6 -16 -25 -16 -43 -1 -18 -5 -32 -10 -32 -4 0 -8 -11 -8
-24 0 -14 -7 -31 -15 -39 -11 -12 -12 -17 -2 -21 8 -3 2 -13 -18 -30 -22 -19
-32 -22 -42 -14 -7 6 -13 7 -13 3 0 -8 24 -29 52 -45 13 -8 15 -6 11 10 -3 11
-10 20 -16 20 -6 0 -7 3 -4 6 4 4 15 1 24 -7 10 -7 15 -10 11 -5 -4 5 0 23 9
40 17 32 21 44 27 83 2 13 9 29 16 38 7 8 16 30 19 48 6 24 12 31 27 29 18 -3
18 -3 -1 13 -11 9 -15 14 -8 11 6 -4 15 -1 19 5 5 8 3 9 -5 5 -9 -6 -11 3 -7
36 2 23 5 49 5 56 1 7 5 11 10 8 4 -3 6 7 4 22 -3 18 -2 23 5 14 6 -9 9 -4 9
15 0 16 3 40 6 55 5 18 2 32 -9 43 -15 15 -15 17 1 29 10 7 18 25 18 39 0 17
5 27 14 27 10 0 12 6 8 21 -5 15 1 29 20 49 19 20 23 29 13 32 -7 3 -19 -1
-26 -8z m-112 -506 c0 -7 -4 -19 -9 -27 -7 -10 -9 -7 -8 12 2 26 17 39 17 15z"/>
<path d="M2575 1331 c-3 -5 -2 -12 3 -15 5 -3 9 1 9 9 0 17 -3 19 -12 6z"/>
<path d="M2761 1324 c0 -11 3 -14 6 -6 3 7 2 16 -1 19 -3 4 -6 -2 -5 -13z"/>
<path d="M864 1322 c3 -6 -1 -15 -9 -20 -15 -8 -15 -10 1 -23 16 -12 17 -12
12 2 -4 9 -2 21 4 27 6 6 6 12 -3 17 -7 5 -10 4 -5 -3z"/>
<path d="M1180 1326 c0 -9 37 -12 55 -5 15 6 11 8 -17 8 -21 1 -38 -1 -38 -3z"/>
<path d="M1910 1325 c0 -5 5 -17 10 -25 5 -8 10 -10 10 -5 0 6 -5 17 -10 25
-5 8 -10 11 -10 5z"/>
<path d="M1786 1305 c4 -8 8 -15 10 -15 2 0 4 7 4 15 0 8 -4 15 -10 15 -5 0
-7 -7 -4 -15z"/>
<path d="M2150 1313 c0 -5 7 -18 15 -29 13 -18 14 -18 8 4 -5 22 -23 41 -23
25z"/>
<path d="M893 1297 c3 -9 2 -19 -3 -22 -6 -4 -10 -15 -10 -26 0 -10 -4 -19
-10 -19 -5 0 -10 -5 -10 -11 0 -6 9 -8 20 -4 15 5 18 3 14 -9 -3 -9 -10 -16
-15 -16 -5 0 -9 -7 -9 -15 0 -8 -6 -15 -12 -15 -9 0 -8 -4 2 -10 12 -8 19 -2
32 28 11 23 13 41 7 47 -12 12 -12 45 1 45 14 0 13 27 -2 36 -8 5 -9 2 -5 -9z"/>
<path d="M936 1297 c3 -10 9 -15 12 -12 3 3 0 11 -7 18 -10 9 -11 8 -5 -6z"/>
<path d="M1422 1298 c-7 -7 -12 -16 -12 -21 0 -5 7 -1 16 8 9 9 14 18 12 20
-2 3 -10 -1 -16 -7z"/>
<path d="M2280 1290 c0 -11 -7 -23 -16 -27 -12 -4 -13 -8 -3 -14 15 -9 21 -36
14 -66 -5 -19 -12 -23 -47 -23 -39 0 -41 -1 -26 -16 14 -15 21 -15 48 -4 43
18 67 55 50 76 -7 8 -13 33 -12 54 1 22 0 40 -3 40 -3 0 -5 -9 -5 -20z"/>
<path d="M1551 1285 c2 -11 -1 -30 -5 -42 -13 -38 -23 -122 -14 -117 4 3 8 0
8 -5 0 -6 -5 -11 -11 -11 -5 0 -7 -5 -4 -10 4 -6 11 -8 16 -5 5 4 9 -1 9 -9 0
-9 -4 -16 -10 -16 -5 0 -10 -12 -9 -27 0 -27 1 -27 9 -5 5 12 12 22 14 22 3 0
2 -7 -1 -17 -4 -10 -2 -14 4 -10 7 5 9 0 6 -13 -4 -14 0 -20 12 -20 11 0 15 6
11 18 -3 9 -10 40 -17 67 -7 28 -16 58 -21 68 -6 11 -5 17 3 17 6 0 9 9 6 20
-3 11 0 20 5 20 6 0 5 6 -2 15 -7 8 -8 15 -3 15 12 0 11 46 -1 57 -4 4 -7 -1
-5 -12z"/>
<path d="M2066 1257 c3 -10 9 -15 12 -12 3 3 0 11 -7 18 -10 9 -11 8 -5 -6z"/>
<path d="M2090 1256 c0 -2 8 -10 18 -17 15 -13 16 -12 3 4 -13 16 -21 21 -21
13z"/>
<path d="M600 1240 c-9 -6 -10 -10 -3 -10 6 0 15 5 18 10 8 12 4 12 -15 0z"/>
<path d="M820 1205 c24 -26 40 -32 40 -16 0 5 -14 17 -32 25 l-32 16 24 -25z"/>
<path d="M1591 1208 c-8 -23 -5 -116 6 -158 3 -14 6 -28 5 -31 -1 -4 8 -5 18
-2 19 5 50 -11 50 -26 -1 -23 -23 -34 -73 -36 -50 -1 -96 -20 -82 -33 3 -3 14
3 25 13 34 31 32 10 -2 -24 -18 -18 -26 -31 -18 -29 8 2 21 11 28 21 7 9 18
15 23 12 5 -3 6 1 3 9 -5 13 1 16 30 16 20 0 36 -5 36 -11 0 -6 -7 -8 -16 -5
-8 3 -12 2 -9 -4 3 -6 1 -10 -5 -10 -6 0 -9 -4 -5 -10 13 -20 51 12 64 53 6
23 14 48 17 55 4 7 -2 12 -15 12 -11 0 -23 5 -26 11 -4 6 -12 8 -19 6 -16 -7
-12 53 5 64 8 5 9 9 3 9 -16 0 -31 41 -29 83 2 42 -2 47 -14 15z"/>
<path d="M1437 1203 c-4 -3 -7 -11 -7 -17 0 -6 5 -5 12 2 6 6 9 14 7 17 -3 3
-9 2 -12 -2z"/>
<path d="M2078 1203 c7 -3 16 -2 19 1 4 3 -2 6 -13 5 -11 0 -14 -3 -6 -6z"/>
<path d="M2758 1203 c7 -3 16 -2 19 1 4 3 -2 6 -13 5 -11 0 -14 -3 -6 -6z"/>
<path d="M1374 1189 c-3 -6 -2 -15 3 -20 5 -5 9 -1 9 11 0 23 -2 24 -12 9z"/>
<path d="M2096 1175 c4 -8 8 -15 10 -15 2 0 4 7 4 15 0 8 -4 15 -10 15 -5 0
-7 -7 -4 -15z"/>
<path d="M901 1167 c-6 -8 -8 -17 -4 -21 4 -3 8 -16 10 -29 5 -30 22 -46 20
-18 -1 11 -4 21 -8 21 -4 0 -6 14 -4 30 4 34 2 36 -14 17z"/>
<path d="M1256 1172 c-3 -5 1 -9 9 -9 8 0 12 4 9 9 -3 4 -7 8 -9 8 -2 0 -6 -4
-9 -8z"/>
<path d="M1467 1144 c3 -7 9 -14 14 -14 14 0 10 17 -5 23 -10 4 -13 1 -9 -9z"/>
<path d="M1410 1115 c0 -14 2 -25 4 -25 2 0 6 11 8 25 3 14 1 25 -3 25 -5 0
-9 -11 -9 -25z"/>
<path d="M881 1122 c-1 -8 -6 -10 -13 -6 -8 5 -7 1 2 -10 15 -19 26 -7 17 17
-4 9 -6 9 -6 -1z"/>
<path d="M764 1108 c-4 -7 -4 -10 1 -6 4 4 15 2 24 -5 14 -11 14 -10 2 6 -16
20 -18 21 -27 5z"/>
<path d="M2062 1078 c-10 -30 -10 -31 3 -14 13 17 21 46 12 46 -1 0 -8 -15
-15 -32z"/>
<path d="M2755 1097 c-14 -11 -15 -16 -5 -22 9 -6 11 -4 5 5 -6 9 -4 12 7 8 9
-4 15 0 15 8 0 17 1 17 -22 1z"/>
<path d="M1756 1085 c4 -8 10 -15 15 -15 4 0 6 7 3 15 -4 8 -10 15 -15 15 -4
0 -6 -7 -3 -15z"/>
<path d="M2141 1077 c-1 -10 -8 -20 -16 -23 -11 -5 -12 -11 -5 -24 6 -10 7
-26 4 -34 -3 -9 -2 -16 4 -16 15 0 24 32 11 40 -8 6 -8 13 1 29 6 12 9 27 6
34 -2 7 -5 4 -5 -6z"/>
<path d="M2161 1074 c0 -11 3 -14 6 -6 3 7 2 16 -1 19 -3 4 -6 -2 -5 -13z"/>
<path d="M856 1072 c-3 -5 1 -9 9 -9 8 0 15 4 15 9 0 4 -4 8 -9 8 -6 0 -12 -4
-15 -8z"/>
<path d="M1345 1065 c-3 -8 -7 -22 -10 -30 -9 -28 11 -15 22 15 7 17 7 30 2
30 -5 0 -12 -7 -14 -15z"/>
<path d="M1391 1053 c-10 -26 -10 -27 4 -9 8 11 15 23 15 28 0 15 -7 8 -19
-19z"/>
<path d="M1651 1073 c0 -4 4 -17 8 -27 6 -15 9 -16 13 -5 3 8 -1 20 -8 27 -8
7 -14 9 -13 5z"/>
<path d="M880 1055 c-7 -8 -9 -15 -4 -15 5 0 2 -5 -6 -10 -13 -8 -13 -10 2
-10 9 0 18 3 21 8 2 4 2 0 0 -8 -8 -29 -8 -33 5 -37 8 -3 12 8 12 36 0 44 -11
58 -30 36z"/>
<path d="M2764 1059 c-3 -6 -1 -16 5 -22 8 -8 11 -5 11 11 0 24 -5 28 -16 11z"/>
<path d="M951 1044 c0 -11 3 -14 6 -6 3 7 2 16 -1 19 -3 4 -6 -2 -5 -13z"/>
<path d="M1240 985 c-7 -8 -9 -15 -6 -15 4 0 14 7 22 15 9 8 11 15 6 15 -5 0
-15 -7 -22 -15z"/>
<path d="M1609 989 c-10 -6 -7 -9 14 -9 29 0 35 5 14 13 -8 3 -20 1 -28 -4z"/>
<path d="M969 983 c-1 -5 -1 -11 0 -15 0 -5 -3 -8 -9 -8 -5 0 -10 -7 -10 -15
0 -18 20 -20 21 -2 0 6 2 20 4 30 2 9 1 17 -1 17 -2 0 -5 -3 -5 -7z"/>
<path d="M1338 960 c-5 -33 0 -43 21 -48 10 -2 12 1 4 10 -5 7 -10 24 -11 37
-1 21 1 22 16 9 9 -9 32 -22 51 -32 34 -16 34 -16 16 4 -10 11 -20 18 -24 16
-7 -5 -32 20 -26 26 2 2 -6 5 -19 6 -19 1 -25 -4 -28 -28z"/>
<path d="M1886 982 c-3 -5 1 -9 9 -9 8 0 12 4 9 9 -3 4 -7 8 -9 8 -2 0 -6 -4
-9 -8z"/>
<path d="M880 960 c-8 -5 -10 -10 -5 -10 6 0 17 5 25 10 8 5 11 10 5 10 -5 0
-17 -5 -25 -10z"/>
<path d="M1810 956 c0 -2 11 -6 25 -8 13 -3 22 -1 19 3 -5 9 -44 13 -44 5z"/>
<path d="M1986 948 c3 -5 10 -6 15 -3 13 9 11 12 -6 12 -8 0 -12 -4 -9 -9z"/>
<path d="M897 936 c-6 -14 0 -26 13 -26 3 0 6 9 6 20 0 23 -11 27 -19 6z"/>
<path d="M1052 926 c7 -8 15 -12 17 -11 5 6 -10 25 -20 25 -5 0 -4 -6 3 -14z"/>
<path d="M1865 920 c-3 -5 -1 -10 4 -10 6 0 11 5 11 10 0 6 -2 10 -4 10 -3 0
-8 -4 -11 -10z"/>
<path d="M2044 915 c-3 -8 -4 -20 -2 -27 3 -7 7 -1 10 15 6 29 1 36 -8 12z"/>
<path d="M2758 923 c7 -3 16 -2 19 1 4 3 -2 6 -13 5 -11 0 -14 -3 -6 -6z"/>
<path d="M929 898 c-7 -13 -17 -26 -23 -30 -6 -4 -1 -6 11 -5 12 0 20 3 18 5
-2 2 0 15 5 28 12 30 5 31 -11 2z"/>
<path d="M970 910 c-9 -6 -10 -10 -3 -10 6 0 15 5 18 10 8 12 4 12 -15 0z"/>
<path d="M1962 900 c7 -10 14 -18 15 -16 6 6 -9 36 -18 36 -5 0 -4 -9 3 -20z"/>
<path d="M895 890 c-3 -5 -1 -10 4 -10 6 0 11 5 11 10 0 6 -2 10 -4 10 -3 0
-8 -4 -11 -10z"/>
<path d="M1350 889 c0 -8 10 -20 23 -28 l22 -14 -20 24 c-11 13 -21 26 -22 28
-2 2 -3 -2 -3 -10z"/>
<path d="M1400 875 c0 -8 4 -15 10 -15 5 0 7 7 4 15 -4 8 -8 15 -10 15 -2 0
-4 -7 -4 -15z"/>
<path d="M2760 875 c0 -8 2 -15 4 -15 2 0 6 7 10 15 3 8 1 15 -4 15 -6 0 -10
-7 -10 -15z"/>
<path d="M1986 865 c-3 -8 -1 -15 4 -15 6 0 10 7 10 15 0 8 -2 15 -4 15 -2 0
-6 -7 -10 -15z"/>
<path d="M2065 859 c1 -9 -6 -24 -17 -34 -11 -9 -17 -19 -14 -23 4 -3 18 6 32
21 14 15 20 27 15 27 -5 0 -11 6 -14 13 -2 6 -3 5 -2 -4z"/>
<path d="M1010 859 c0 -5 5 -7 10 -4 6 3 10 8 10 11 0 2 -4 4 -10 4 -5 0 -10
-5 -10 -11z"/>
<path d="M1200 850 c-8 -14 -8 -26 -2 -32 6 -6 12 0 16 17 9 35 1 43 -14 15z"/>
<path d="M1321 854 c0 -11 3 -14 6 -6 3 7 2 16 -1 19 -3 4 -6 -2 -5 -13z"/>
<path d="M965 850 c27 -12 43 -12 25 0 -8 5 -22 9 -30 9 -10 0 -8 -3 5 -9z"/>
<path d="M1748 838 c3 -13 12 -33 20 -45 13 -21 13 -23 -2 -23 -10 0 -15 4
-11 9 3 5 1 12 -4 15 -5 4 -8 -2 -7 -11 4 -22 23 -28 41 -13 18 15 20 -1 3
-20 -11 -12 -10 -12 3 -2 14 10 17 9 22 -9 5 -18 9 -20 20 -10 16 13 31 54 16
45 -5 -3 -9 -12 -9 -20 0 -8 -5 -14 -11 -14 -7 0 -8 11 -4 29 4 18 2 32 -5 36
-9 5 -10 1 -5 -16 7 -21 6 -22 -9 -10 -9 7 -16 10 -16 5 0 -5 -9 10 -20 34
-21 46 -31 55 -22 20z"/>
<path d="M1953 845 c0 -8 4 -15 9 -15 4 0 8 4 8 9 0 6 -4 12 -8 15 -5 3 -9 -1
-9 -9z"/>
<path d="M917 844 c-3 -4 0 -13 8 -20 8 -8 12 -21 9 -29 -4 -8 -1 -15 6 -15 7
0 10 -8 8 -18 -3 -10 1 -27 8 -37 8 -10 14 -27 14 -36 0 -10 6 -19 13 -22 8
-3 6 -10 -8 -26 -14 -16 -15 -22 -5 -19 8 2 18 8 22 13 7 9 13 -16 9 -37 0 -5
3 -8 8 -8 5 0 12 -12 16 -28 3 -15 23 -45 45 -66 l40 -38 -11 31 c-6 17 -20
36 -31 42 -15 8 -18 17 -14 37 4 15 3 22 -2 15 -5 -9 -11 -6 -21 9 -11 18 -11
20 3 15 9 -4 16 -2 16 3 0 6 -7 10 -15 10 -19 0 -19 10 1 39 16 22 16 22 -4
10 -11 -7 -18 -17 -15 -23 4 -5 1 -6 -6 -2 -7 5 -10 14 -7 21 3 8 -2 19 -9 25
-10 8 -13 22 -9 39 4 20 3 22 -5 11 -12 -18 -16 -14 -25 29 -5 28 -3 32 10 27
9 -3 3 7 -13 24 -15 16 -28 30 -29 30 0 0 -3 -3 -7 -6z"/>
<path d="M1295 840 c-3 -5 -1 -10 4 -10 6 0 11 5 11 10 0 6 -2 10 -4 10 -3 0
-8 -4 -11 -10z"/>
<path d="M1053 819 c-2 -23 3 -25 10 -4 4 8 3 16 -1 19 -4 3 -9 -4 -9 -15z"/>
<path d="M1525 830 c3 -5 8 -10 11 -10 2 0 4 5 4 10 0 6 -5 10 -11 10 -5 0 -7
-4 -4 -10z"/>
<path d="M2013 828 c2 -7 0 -25 -4 -40 -4 -16 -4 -28 2 -28 5 0 9 8 9 18 0 9
3 27 6 40 4 14 2 22 -6 22 -6 0 -10 -6 -7 -12z"/>
<path d="M1486 799 c-14 -14 -16 -19 -5 -19 22 1 52 27 37 32 -7 3 -22 -3 -32
-13z"/>
<path d="M1585 810 c-3 -5 1 -20 9 -32 9 -12 16 -17 16 -11 0 7 -5 15 -11 18
-6 4 -8 13 -5 21 6 16 0 19 -9 4z"/>
<path d="M1675 810 c-4 -6 -4 -14 -1 -17 3 -4 6 0 6 8 1 10 5 8 15 -5 9 -12
18 -16 23 -10 4 5 5 8 3 6 -2 -1 -12 5 -22 14 -12 11 -19 12 -24 4z"/>
<path d="M1969 818 c-7 -13 -4 -46 3 -42 5 3 7 12 4 19 -3 8 0 16 7 19 9 3 9
5 0 5 -7 1 -14 0 -14 -1z"/>
<path d="M1172 793 c-14 -25 -16 -45 -3 -24 8 12 12 12 25 2 11 -9 16 -10 16
-2 0 6 -4 11 -9 11 -5 0 -11 8 -13 18 -3 15 -5 14 -16 -5z"/>
<path d="M2040 770 c0 -5 5 -10 10 -10 6 0 10 5 10 10 0 6 -4 10 -10 10 -5 0
-10 -4 -10 -10z"/>
<path d="M1266 757 c3 -10 9 -15 12 -12 3 3 0 11 -7 18 -10 9 -11 8 -5 -6z"/>
<path d="M1324 748 c-4 -7 -2 -8 4 -4 7 4 12 2 12 -5 0 -7 2 -10 5 -7 3 3 33
-5 67 -16 58 -20 68 -21 157 -9 53 7 110 10 126 8 l30 -5 -25 14 c-19 10 -75
15 -75 6 0 -3 -81 -9 -125 -10 -25 -1 -60 4 -77 10 -86 27 -93 28 -99 18z"/>
<path d="M1546 744 c-5 -14 -4 -15 9 -4 17 14 19 20 6 20 -5 0 -12 -7 -15 -16z"/>
<path d="M1965 750 c-3 -5 -1 -10 4 -10 6 0 11 5 11 10 0 6 -2 10 -4 10 -3 0
-8 -4 -11 -10z"/>
<path d="M2018 743 c15 -6 16 -33 1 -33 -5 0 -8 -4 -4 -10 10 -16 30 -1 31 23
1 17 -4 23 -20 24 -11 1 -15 -1 -8 -4z"/>
<path d="M2576 727 c3 -10 9 -15 12 -12 3 3 0 11 -7 18 -10 9 -11 8 -5 -6z"/>
<path d="M1026 718 c3 -5 10 -6 15 -3 13 9 11 12 -6 12 -8 0 -12 -4 -9 -9z"/>
<path d="M1736 707 c3 -10 9 -15 12 -12 3 3 0 11 -7 18 -10 9 -11 8 -5 -6z"/>
<path d="M1907 694 c-10 -13 -13 -24 -8 -24 10 0 36 39 29 45 -2 2 -11 -8 -21
-21z"/>
<path d="M1290 706 c0 -2 9 -6 20 -9 11 -3 18 -1 14 4 -5 9 -34 13 -34 5z"/>
<path d="M1805 700 c-3 -5 1 -10 9 -10 9 0 16 5 16 10 0 6 -4 10 -9 10 -6 0
-13 -4 -16 -10z"/>
<path d="M1515 679 c-4 -6 -5 -12 -2 -15 2 -3 7 2 10 11 7 17 1 20 -8 4z"/>
<path d="M1350 674 c0 -17 27 -37 34 -25 4 5 2 12 -4 16 -5 3 -10 3 -10 -2 0
-4 -5 -1 -10 7 -5 8 -10 10 -10 4z"/>
<path d="M1545 660 c-3 -6 1 -7 9 -4 18 7 21 14 7 14 -6 0 -13 -4 -16 -10z"/>
<path d="M1620 655 c0 -8 2 -15 4 -15 2 0 6 7 10 15 3 8 1 15 -4 15 -6 0 -10
-7 -10 -15z"/>
<path d="M1970 666 c0 -2 7 -7 16 -10 8 -3 12 -2 9 4 -6 10 -25 14 -25 6z"/>
<path d="M2420 660 c0 -5 5 -10 11 -10 5 0 7 5 4 10 -3 6 -8 10 -11 10 -2 0
-4 -4 -4 -10z"/>
<path d="M1136 647 c3 -10 9 -15 12 -12 3 3 0 11 -7 18 -10 9 -11 8 -5 -6z"/>
<path d="M903 600 c-1 -11 2 -18 8 -15 11 7 12 35 1 35 -4 0 -8 -9 -9 -20z"/>
<path d="M2760 610 c0 -5 5 -10 11 -10 5 0 7 5 4 10 -3 6 -8 10 -11 10 -2 0
-4 -4 -4 -10z"/>
<path d="M960 602 c0 -10 -51 -37 -63 -33 -5 1 -6 -2 -4 -6 3 -5 -1 -17 -9
-27 -10 -14 -17 -16 -26 -8 -10 8 -13 4 -15 -16 0 -15 -6 -28 -12 -30 -7 -2
-30 -24 -53 -48 -23 -24 -47 -44 -55 -44 -7 0 -16 -7 -19 -15 -4 -8 -13 -15
-21 -15 -8 0 -12 -4 -9 -9 3 -4 -6 -13 -19 -19 -14 -7 -25 -16 -25 -22 0 -6
-4 -8 -10 -5 -5 3 -10 0 -10 -8 0 -17 -21 -27 -54 -27 -12 0 -26 -4 -32 -9 -5
-6 -20 -12 -34 -14 -14 -3 -38 -10 -53 -16 -16 -6 -32 -9 -37 -6 -5 3 -11 1
-15 -5 -3 -5 -15 -10 -26 -10 -10 0 -19 -4 -19 -10 0 -5 -6 -7 -13 -4 -12 4
-45 -7 -122 -41 -91 -41 -112 -49 -130 -51 -30 -3 -75 -22 -75 -33 0 -14 69 5
187 53 59 24 176 65 258 91 117 37 156 54 177 76 16 16 31 28 34 28 22 -6 217
174 271 250 2 2 6 1 9 -2 4 -4 -2 -18 -12 -33 -11 -15 -23 -34 -29 -43 -5 -9
-25 -31 -42 -49 -18 -17 -33 -33 -33 -35 0 -11 40 -13 50 -3 8 8 9 -1 5 -34
-3 -25 -10 -47 -16 -48 -6 -3 -6 -8 1 -17 7 -9 7 -21 0 -41 -8 -21 -8 -30 0
-32 8 -3 8 -8 0 -17 -14 -17 -2 -45 17 -38 12 5 14 1 8 -15 -4 -14 -2 -22 5
-22 6 0 9 -4 6 -8 -5 -8 4 -55 19 -101 5 -18 4 -22 -5 -16 -9 5 -11 4 -6 -3 4
-7 12 -12 17 -12 10 0 8 36 -6 90 -4 14 -8 36 -9 50 -4 40 -5 40 -28 50 -19 7
-20 9 -5 9 15 1 17 6 12 29 -13 63 51 336 85 357 13 8 13 25 0 25 -5 0 -10 -4
-10 -8z"/>
<path d="M1306 595 c-9 -26 -7 -32 5 -12 6 10 9 21 6 23 -2 3 -7 -2 -11 -11z"/>
<path d="M1414 602 c4 -3 14 -7 22 -8 9 -1 13 0 10 4 -4 3 -14 7 -22 8 -9 1
-13 0 -10 -4z"/>
<path d="M1970 595 c-7 -9 -8 -15 -2 -15 5 0 12 7 16 15 3 8 4 15 2 15 -2 0
-9 -7 -16 -15z"/>
<path d="M1490 590 c0 -6 11 -8 28 -4 39 10 40 14 4 14 -18 0 -32 -5 -32 -10z"/>
<path d="M1679 579 c-13 -10 -19 -19 -13 -19 6 0 17 6 24 14 6 8 18 12 26 9 8
-3 14 -3 14 0 0 15 -29 12 -51 -4z"/>
<path d="M1888 593 c7 -3 16 -2 19 1 4 3 -2 6 -13 5 -11 0 -14 -3 -6 -6z"/>
<path d="M1092 576 c7 -8 15 -12 17 -11 5 6 -10 25 -20 25 -5 0 -4 -6 3 -14z"/>
<path d="M1999 585 c-1 -3 -3 -9 -4 -15 -1 -5 -3 -13 -4 -17 0 -4 -6 -2 -13 5
-17 17 -29 15 -22 -3 4 -8 10 -12 15 -9 5 3 9 0 9 -5 0 -6 -9 -11 -20 -11 -11
0 -20 -4 -20 -10 0 -5 -8 -10 -17 -10 -12 0 -14 -3 -6 -11 8 -8 17 -8 33 1 18
10 21 10 15 -2 -4 -7 2 -2 13 11 15 18 21 21 25 10 4 -10 6 -9 6 4 1 9 -4 17
-10 17 -5 0 -7 5 -4 10 4 6 10 8 14 6 4 -3 8 4 8 15 2 16 -15 29 -18 14z"/>
<path d="M982 568 c-23 -29 -44 -97 -49 -163 -7 -87 2 -83 11 5 4 35 12 67 17
71 6 3 10 9 10 13 -3 16 12 56 21 56 5 0 7 4 4 9 -4 5 0 12 6 14 8 4 9 6 2 6
-6 1 -16 -5 -22 -11z"/>
<path d="M1410 570 c-9 -6 -10 -10 -3 -10 6 0 15 5 18 10 8 12 4 12 -15 0z"/>
<path d="M1327 554 c3 -8 16 -14 29 -14 32 0 30 6 -5 18 -25 9 -29 8 -24 -4z"/>
<path d="M1616 563 c-4 -4 -28 -9 -54 -10 -69 -5 -72 -6 -66 -15 3 -4 13 -4
23 2 10 5 21 6 25 3 8 -8 106 -7 114 1 3 3 -5 6 -17 6 -12 0 -19 4 -16 10 7
12 2 13 -9 3z"/>
<path d="M1925 559 c-4 -6 -5 -12 -2 -15 2 -3 7 2 10 11 7 17 1 20 -8 4z"/>
<path d="M2767 543 c-4 -3 -7 -13 -7 -22 1 -13 3 -13 11 2 11 19 8 33 -4 20z"/>
<path d="M1003 508 c-1 -85 -7 -144 -16 -156 -7 -9 1 -29 29 -70 22 -31 39
-62 39 -69 0 -28 209 -184 265 -197 14 -3 19 -3 12 0 -6 3 -9 11 -6 16 4 7 2
8 -4 4 -7 -4 -12 -3 -12 2 0 5 -18 17 -41 27 -22 10 -47 28 -55 39 -8 12 -17
19 -20 18 -9 -6 -74 43 -74 56 0 7 -4 10 -10 7 -8 -5 -41 52 -44 76 -1 4 -12
16 -26 27 -24 20 -25 23 -22 136 2 67 0 116 -6 116 -5 0 -9 -15 -9 -32z"/>
<path d="M1430 536 c0 -2 7 -7 16 -10 8 -3 12 -2 9 4 -6 10 -25 14 -25 6z"/>
<path d="M1120 526 c0 -2 8 -10 18 -17 15 -13 16 -12 3 4 -13 16 -21 21 -21
13z"/>
<path d="M2040 530 c0 -3 7 -27 15 -54 19 -63 19 -134 -1 -216 -9 -36 -17 -71
-18 -77 -1 -7 -11 -23 -23 -35 -25 -27 -87 -148 -76 -148 5 0 26 34 47 75 22
41 41 73 43 71 3 -2 -12 -36 -31 -75 -20 -39 -32 -71 -28 -71 5 0 20 21 33 47
13 27 28 51 33 54 5 4 6 11 2 17 -3 6 2 15 11 21 10 6 15 11 11 11 -4 0 -2 15
4 33 5 17 10 38 11 45 0 6 7 12 16 12 12 0 13 2 3 8 -7 5 -10 16 -6 25 3 9 10
14 15 11 5 -3 5 6 -1 20 -6 17 -6 27 1 32 7 4 9 22 5 46 -8 47 1 44 45 -17 18
-25 36 -45 41 -45 10 0 -14 31 -63 82 -20 21 -40 48 -43 61 -5 20 -45 79 -46
67z"/>
<path d="M2008 426 c-11 -59 -25 -101 -44 -129 -41 -60 -162 -177 -184 -177
-10 0 -23 -6 -27 -13 -4 -6 -33 -25 -63 -41 -30 -16 -64 -37 -75 -48 -20 -20
-20 -20 18 -4 21 8 79 40 130 70 140 82 240 200 254 300 7 51 7 51 14 16 6
-32 6 -30 7 15 0 99 -12 104 -30 11z"/>
<path d="M1138 477 c-15 -12 -15 -14 0 -25 15 -11 14 -12 -5 -8 -13 2 -23 0
-23 -5 0 -5 7 -9 16 -9 9 0 23 -8 30 -17 11 -15 12 -12 3 20 -5 20 -7 42 -4
47 8 13 4 12 -17 -3z"/>
<path d="M1849 488 c0 -2 -2 -13 -3 -25 -2 -18 0 -20 16 -12 21 11 24 20 6 17
-7 -2 -12 3 -10 10 2 10 -6 18 -9 10z"/>
<path d="M1980 473 c0 -11 -3 -14 -8 -8 -4 6 -19 11 -34 10 -22 0 -28 -5 -28
-22 0 -24 14 -31 25 -13 3 6 0 10 -7 11 -7 0 -4 4 7 9 13 5 26 3 38 -8 16 -14
17 -13 17 11 0 15 -2 27 -5 27 -3 0 -5 -8 -5 -17z"/>
<path d="M1380 466 c-6 -9 -10 -21 -7 -28 4 -9 6 -7 6 4 1 9 7 18 14 21 6 2 9
7 6 11 -3 4 -12 0 -19 -8z"/>
<path d="M1478 473 c7 -3 16 -2 19 1 4 3 -2 6 -13 5 -11 0 -14 -3 -6 -6z"/>
<path d="M1326 461 c-3 -5 1 -11 9 -15 8 -3 15 -1 15 4 0 13 -18 22 -24 11z"/>
<path d="M1506 443 c-6 -14 -5 -15 5 -6 7 7 10 15 7 18 -3 3 -9 -2 -12 -12z"/>
<path d="M1600 452 c0 -4 9 -13 20 -20 11 -7 20 -9 20 -4 0 4 -9 13 -20 20
-11 7 -20 9 -20 4z"/>
<path d="M1240 445 c0 -10 29 -24 34 -17 3 6 -3 12 -14 15 -11 3 -20 4 -20 2z"/>
<path d="M1789 426 c-9 -19 -9 -19 4 -4 8 10 16 15 19 12 4 -3 8 -1 12 4 3 5
-2 9 -10 9 -8 0 -20 -10 -25 -21z"/>
<path d="M1595 410 c-3 -5 -2 -10 4 -10 5 0 13 5 16 10 3 6 2 10 -4 10 -5 0
-13 -4 -16 -10z"/>
<path d="M1811 403 c-7 -8 -11 -16 -8 -19 2 -2 10 2 17 11 17 20 9 27 -9 8z"/>
<path d="M1886 405 c4 -8 8 -15 10 -15 2 0 4 7 4 15 0 8 -4 15 -10 15 -5 0 -7
-7 -4 -15z"/>
<path d="M1720 399 c0 -5 5 -7 10 -4 6 3 10 8 10 11 0 2 -4 4 -10 4 -5 0 -10
-5 -10 -11z"/>
<path d="M1550 390 c0 -5 5 -10 10 -10 6 0 10 5 10 10 0 6 -4 10 -10 10 -5 0
-10 -4 -10 -10z"/>
<path d="M2751 384 c0 -11 3 -14 6 -6 3 7 2 16 -1 19 -3 4 -6 -2 -5 -13z"/>
<path d="M827 383 c-12 -11 -8 -23 8 -23 8 0 15 7 15 15 0 16 -12 20 -23 8z"/>
<path d="M1180 379 c0 -5 7 -9 16 -9 8 0 13 -4 9 -9 -3 -6 4 -15 15 -21 13 -7
20 -7 20 0 0 5 -6 10 -14 10 -9 0 -13 7 -11 18 2 12 -3 18 -16 19 -10 1 -19
-2 -19 -8z"/>
<path d="M970 365 c-11 -13 -10 -14 4 -9 9 3 16 10 16 15 0 13 -6 11 -20 -6z"/>
<path d="M1655 360 c-3 -5 -1 -10 4 -10 6 0 11 5 11 10 0 6 -2 10 -4 10 -3 0
-8 -4 -11 -10z"/>
<path d="M2763 355 c-3 -9 -3 -18 -1 -21 3 -3 8 4 11 16 6 23 -1 27 -10 5z"/>
<path d="M530 341 c0 -6 4 -13 10 -16 6 -3 7 1 4 9 -7 18 -14 21 -14 7z"/>
<path d="M786 331 c-15 -17 -15 -19 -1 -25 9 -3 14 -2 11 3 -6 9 22 26 37 22
5 -1 6 3 2 9 -10 16 -30 12 -49 -9z"/>
<path d="M1247 326 c-6 -16 19 -43 30 -33 3 4 -1 9 -10 13 -9 3 -13 12 -10 20
3 8 3 14 0 14 -3 0 -7 -6 -10 -14z"/>
<path d="M693 308 c-43 -22 -60 -43 -43 -53 6 -4 10 -1 10 5 0 6 4 9 10 5 10
-6 78 50 70 59 -3 3 -24 -5 -47 -16z"/>
<path d="M2235 320 c3 -5 8 -10 11 -10 2 0 4 5 4 10 0 6 -5 10 -11 10 -5 0 -7
-4 -4 -10z"/>
<path d="M2510 320 c0 -5 5 -10 11 -10 5 0 7 5 4 10 -3 6 -8 10 -11 10 -2 0
-4 -4 -4 -10z"/>
<path d="M2260 300 c0 -6 7 -10 15 -10 8 0 15 2 15 4 0 2 -7 6 -15 10 -8 3
-15 1 -15 -4z"/>
<path d="M2765 299 c-4 -6 -5 -12 -2 -15 2 -3 7 2 10 11 7 17 1 20 -8 4z"/>
<path d="M2190 296 c0 -2 7 -6 15 -10 8 -3 15 -1 15 4 0 6 -7 10 -15 10 -8 0
-15 -2 -15 -4z"/>
<path d="M755 250 c-16 -16 -25 -30 -21 -30 9 0 56 47 56 56 0 8 -7 4 -35 -26z"/>
<path d="M1280 276 c0 -2 7 -7 16 -10 8 -3 12 -2 9 4 -6 10 -25 14 -25 6z"/>
<path d="M1320 266 c0 -2 9 -6 20 -9 11 -3 18 -1 14 4 -5 9 -34 13 -34 5z"/>
<path d="M1630 259 c0 -5 5 -7 10 -4 6 3 10 8 10 11 0 2 -4 4 -10 4 -5 0 -10
-5 -10 -11z"/>
<path d="M594 231 c-44 -43 -56 -61 -44 -61 6 0 13 7 16 15 3 8 20 22 37 30
30 15 32 14 47 -5 15 -20 15 -19 15 5 0 19 -5 25 -23 25 -13 0 -20 4 -17 10
12 19 -3 10 -31 -19z"/>
<path d="M1386 247 c3 -10 9 -15 12 -12 3 3 0 11 -7 18 -10 9 -11 8 -5 -6z"/>
<path d="M1856 243 c-6 -14 -5 -15 5 -6 7 7 10 15 7 18 -3 3 -9 -2 -12 -12z"/>
<path d="M2260 237 c0 -7 3 -17 7 -21 4 -4 8 -13 8 -19 2 -27 18 -67 27 -67 6
0 7 7 4 16 -3 9 -9 27 -12 41 l-7 25 32 -16 c40 -21 41 -7 1 16 -17 9 -30 13
-30 7 0 -6 -5 -7 -10 -4 -6 4 -8 10 -5 15 3 5 1 11 -5 15 -5 3 -10 0 -10 -8z"/>
<path d="M450 193 c-57 -18 -109 -38 -114 -43 -6 -6 -18 -10 -28 -10 -19 0
-27 -3 -96 -39 -23 -12 -73 -31 -110 -42 -37 -12 -75 -28 -85 -37 -33 -30 -18
-27 143 26 8 3 21 4 29 3 7 -1 10 2 6 8 -3 6 0 11 8 11 7 0 22 8 33 18 18 17
36 22 81 25 11 1 19 5 16 10 -4 6 12 9 33 6 4 0 10 3 13 8 3 5 26 16 51 25 25
8 54 19 65 23 19 8 19 8 3 -12 -35 -39 -17 -35 23 6 23 23 40 43 38 45 -2 1
-51 -12 -109 -31z"/>
<path d="M1976 204 c-9 -24 -2 -26 12 -4 7 11 8 20 3 20 -5 0 -12 -7 -15 -16z"/>
<path d="M966 203 c6 -4 14 -15 17 -23 5 -11 6 -9 4 4 -1 11 -9 21 -17 23 -10
3 -11 2 -4 -4z"/>
<path d="M1001 174 c0 -11 3 -14 6 -6 3 7 2 16 -1 19 -3 4 -6 -2 -5 -13z"/>
<path d="M2320 171 c0 -14 36 -111 41 -111 10 0 6 34 -5 41 -5 4 -10 19 -11
34 -3 20 0 25 12 21 8 -3 26 -6 40 -6 20 0 24 -4 18 -17 -5 -15 -4 -16 6 -5 7
6 17 12 23 12 5 0 7 -3 3 -6 -16 -16 37 -41 100 -46 6 -1 9 -7 6 -15 -3 -7
-10 -10 -16 -6 -6 3 -7 1 -3 -6 4 -6 12 -9 17 -5 5 3 16 0 24 -6 19 -16 72
-23 79 -11 8 12 -50 32 -70 24 -11 -4 -15 0 -12 12 2 13 -9 22 -44 34 -26 9
-58 26 -71 39 -18 17 -37 23 -80 25 -32 1 -57 0 -57 -2z"/>
<path d="M1945 156 c-18 -19 -26 -36 -18 -36 9 0 37 40 31 45 -2 2 -8 -2 -13
-9z"/>
<path d="M524 144 c-18 -14 -18 -15 4 -4 12 6 22 13 22 15 0 8 -5 6 -26 -11z"/>
<path d="M1020 135 c0 -8 7 -15 16 -15 14 0 14 3 4 15 -7 8 -14 15 -16 15 -2
0 -4 -7 -4 -15z"/>
<path d="M445 119 c-4 -6 -4 -13 -1 -16 3 -4 6 -1 6 6 0 7 5 9 12 5 7 -4 8 -3
4 4 -9 15 -13 15 -21 1z"/>
<path d="M848 115 c-7 -11 5 -102 15 -112 8 -8 7 51 -2 92 -3 17 -9 26 -13 20z"/>
<path d="M2300 105 c0 -8 5 -15 10 -15 6 0 10 7 10 15 0 8 -4 15 -10 15 -5 0
-10 -7 -10 -15z"/>
<path d="M2762 100 c0 -14 2 -19 5 -12 2 6 2 18 0 25 -3 6 -5 1 -5 -13z"/>
<path d="M2066 87 c3 -10 9 -15 12 -12 3 3 0 11 -7 18 -10 9 -11 8 -5 -6z"/>
<path d="M2666 85 c-3 -8 -1 -15 4 -15 6 0 10 7 10 15 0 8 -2 15 -4 15 -2 0
-6 -7 -10 -15z"/>
<path d="M1835 80 c4 -6 11 -8 16 -5 14 9 11 15 -7 15 -8 0 -12 -5 -9 -10z"/>
<path d="M2490 80 c0 -6 7 -10 15 -10 8 0 15 2 15 4 0 2 -7 6 -15 10 -8 3 -15
1 -15 -4z"/>
<path d="M989 53 c-5 -16 -12 -34 -14 -40 -2 -7 1 -13 8 -13 7 0 13 10 14 21
2 24 23 52 23 31 0 -7 7 -12 16 -12 13 0 14 3 5 14 -9 11 1 10 46 -4 32 -10
75 -26 95 -34 55 -23 71 -19 18 5 -59 26 -159 59 -182 59 -11 0 -23 -11 -29
-27z"/>
<path d="M2320 75 c0 -5 5 -17 10 -25 5 -8 10 -10 10 -5 0 6 -5 17 -10 25 -5
8 -10 11 -10 5z"/>
<path d="M2707 73 c-14 -14 -5 -24 45 -49 42 -21 50 -23 38 -8 -28 34 -50 54
-50 44 0 -5 -7 -7 -15 -4 -8 4 -12 10 -9 15 6 11 0 12 -9 2z"/>
<path d="M1804 49 c-19 -22 -19 -22 4 -10 12 6 22 16 22 21 0 15 -5 12 -26
-11z"/>
<path d="M2362 38 c2 -6 10 -13 16 -14 7 -1 8 0 2 3 -5 2 -8 9 -4 14 3 5 0 9
-6 9 -7 0 -10 -5 -8 -12z"/>
<path d="M2666 25 c-7 -19 13 -28 46 -22 18 3 16 5 -9 6 -24 1 -31 5 -27 16 4
8 4 15 1 15 -3 0 -8 -7 -11 -15z"/>
<path d="M2630 10 c0 -5 5 -10 10 -10 6 0 10 5 10 10 0 6 -4 10 -10 10 -5 0
-10 -4 -10 -10z"/>
</g>
</svg>
